<?xml version="1.0" encoding="UTF-8" standalone="no"?>
<svg
   width="120mm"
   height="20mm"
   viewBox="0 0 120 20"
   version="1.1"
   id="svg8"
   xmlns="http://www.w3.org/2000/svg"
   xmlns:svg="http://www.w3.org/2000/svg"
   xmlns:rdf="http://www.w3.org/1999/02/22-rdf-syntax-ns#"
   xmlns:cc="http://creativecommons.org/ns#"
   xmlns:dc="http://purl.org/dc/elements/1.1/">
  <defs
     id="defs2" />
  <metadata
     id="metadata5">
    <rdf:RDF>
      <cc:Work
         rdf:about="">
        <dc:format>image/svg+xml</dc:format>
        <dc:type
           rdf:resource="http://purl.org/dc/dcmitype/StillImage" />
      </cc:Work>
    </rdf:RDF>
  </metadata>
  <path
     id="path835"
     style="fill:#000000;fill-opacity:1;stroke:none;stroke-width:0.265;stroke-linecap:butt;stroke-linejoin:miter;stroke-miterlimit:4;stroke-dasharray:none;stroke-opacity:1"
     d="M 9.9999064 0 L 0 9.9999064 L 9.9999064 19.999813 L 110 19.999813 L 119.99991 9.9999064 L 110 0 L 9.9999064 0 z M 28.601872 2.9791463 L 29.007532 2.9791463 C 29.114565 2.9791463 29.201931 3.0159839 29.269531 3.0892171 C 29.342765 3.1568171 29.379602 3.2441834 29.379602 3.3512166 C 29.379602 3.4582499 29.342765 3.5482511 29.269531 3.6214844 C 29.201931 3.6890843 29.114565 3.7227702 29.007532 3.7227702 L 28.965674 3.7227702 L 28.965674 8.2857992 L 29.007532 8.2857992 C 29.114565 8.2857992 29.201931 8.3226367 29.269531 8.39587 C 29.342765 8.4634699 29.379602 8.5476846 29.379602 8.6490845 C 29.379602 8.7504844 29.342765 8.8378507 29.269531 8.911084 C 29.201931 8.9786839 29.114565 9.0128866 29.007532 9.0128866 L 28.627193 9.0128866 C 28.531427 9.0128866 28.447212 8.9818356 28.373979 8.919869 C 28.306379 8.852269 28.272693 8.7701725 28.272693 8.6744059 L 28.272693 8.4718343 C 27.99666 8.8999672 27.5993 9.1141724 27.081034 9.1141724 C 26.816268 9.1141724 26.571529 9.0662785 26.346195 8.9705119 C 26.126496 8.869112 25.926499 8.7138571 25.746232 8.505424 C 25.374432 8.0998244 25.188127 7.5224625 25.188127 6.77323 C 25.188127 6.463397 25.230751 6.1649771 25.315251 5.8776774 C 25.399751 5.612911 25.520803 5.379228 25.678536 5.1764282 C 25.836269 4.9736284 26.036266 4.8241601 26.278499 4.7283936 C 26.396799 4.6720603 26.517851 4.6299529 26.641785 4.6017863 C 26.771351 4.5679863 26.90346 4.5511434 27.03866 4.5511434 C 27.517493 4.5511434 27.914852 4.7479888 28.230318 5.1423218 L 28.230318 3.3341634 C 28.230318 3.2496635 28.255583 3.1765052 28.306283 3.1145386 C 28.362616 3.052572 28.430504 3.0130995 28.509371 2.9961995 C 28.526271 2.9905662 28.539962 2.9879313 28.551229 2.9879313 C 28.568129 2.982298 28.584972 2.9791463 28.601872 2.9791463 z M 22.721094 4.5511434 C 22.974593 4.5511434 23.214063 4.5990373 23.439396 4.6948039 C 23.664729 4.7905704 23.830524 4.9116227 23.937557 5.0580892 C 24.04459 5.210189 24.123535 5.3959781 24.174235 5.6156779 C 24.185502 5.6832778 24.193923 5.7764308 24.199556 5.8947306 C 24.20519 6.0130305 24.208341 6.1593472 24.208341 6.3339803 L 24.208341 8.2692627 L 24.258984 8.2692627 C 24.360384 8.2692627 24.444599 8.3087351 24.512199 8.3876017 C 24.585432 8.460835 24.62227 8.5476846 24.62227 8.6490845 C 24.62227 8.7504844 24.585432 8.8378507 24.512199 8.911084 C 24.444599 8.9786839 24.360384 9.0128866 24.258984 9.0128866 L 23.836271 9.0128866 C 23.734871 9.0128866 23.647505 8.9786839 23.574272 8.911084 C 23.501038 8.8378507 23.464718 8.7478495 23.464718 8.6408162 L 23.464718 6.3593018 C 23.464718 6.0551021 23.436302 5.8298405 23.379968 5.683374 C 23.323635 5.5425408 23.222061 5.4214886 23.075594 5.3200887 C 22.929128 5.2355888 22.757547 5.1934814 22.56038 5.1934814 C 22.23928 5.1934814 21.96876 5.2945391 21.74906 5.4973389 C 21.523727 5.688872 21.411096 6.0662367 21.411096 6.6295695 L 21.411096 8.6408162 C 21.411096 8.7478495 21.374775 8.8378507 21.301542 8.911084 C 21.228309 8.9786839 21.140943 9.0128866 21.039543 9.0128866 L 20.616829 9.0128866 C 20.51543 9.0128866 20.428063 8.9786839 20.35483 8.911084 C 20.281597 8.8378507 20.245276 8.7504844 20.245276 8.6490845 C 20.245276 8.5476846 20.281597 8.460835 20.35483 8.3876017 C 20.428063 8.3087351 20.51543 8.2692627 20.616829 8.2692627 L 20.659204 8.2692627 L 20.659204 5.3877848 L 20.616829 5.3877848 C 20.51543 5.3877848 20.428063 5.3509473 20.35483 5.277714 C 20.281597 5.2044808 20.245276 5.1171144 20.245276 5.0157145 C 20.245276 4.9143146 20.281597 4.8269483 20.35483 4.753715 C 20.428063 4.6804817 20.51543 4.644161 20.616829 4.644161 L 21.005436 4.644161 C 21.095569 4.644161 21.171879 4.6778468 21.233846 4.7454468 C 21.301446 4.8074134 21.335132 4.8863583 21.335132 4.9821248 L 21.335132 5.2694458 C 21.656232 4.790613 22.118328 4.5511434 22.721094 4.5511434 z M 16.663066 4.852417 C 17.555731 4.852417 18.2618 5.0994575 18.781799 5.593457 C 19.301799 6.0874565 19.562113 6.70319 19.562113 7.439856 C 19.562113 7.8125223 19.484019 8.1806984 19.328019 8.5446981 C 19.180686 8.9000311 18.929393 9.2772289 18.57406 9.6758952 C 18.218727 10.074561 17.633794 10.620189 16.819128 11.313521 C 16.125796 11.894187 15.679008 12.288395 15.479675 12.496395 C 15.384342 12.600395 15.297743 12.704521 15.219743 12.808521 C 15.141743 12.903854 15.068418 13.003727 14.999084 13.107727 L 18.443835 13.107727 C 18.443835 12.960394 18.500151 12.830237 18.612817 12.71757 C 18.725484 12.604903 18.859894 12.548588 19.015894 12.548588 C 19.163227 12.548588 19.293384 12.604903 19.406051 12.71757 C 19.527384 12.830237 19.587952 12.960394 19.587952 13.107727 L 19.587952 13.640511 C 19.587952 13.657844 19.583699 13.679623 19.575033 13.705623 L 19.575033 13.770736 C 19.549033 13.892069 19.483696 13.996195 19.379696 14.082861 C 19.284362 14.169528 19.167479 14.212569 19.028813 14.212569 L 13.413135 14.212569 C 13.413135 13.917903 13.460428 13.649083 13.555762 13.406417 C 13.625095 13.198417 13.720716 12.994935 13.842049 12.795601 C 13.972049 12.587602 14.123469 12.384119 14.296802 12.184786 C 14.470135 11.976786 14.682639 11.755777 14.933972 11.521777 C 15.185305 11.287778 15.475387 11.036485 15.80472 10.767818 C 16.818719 9.935819 17.503525 9.2770443 17.858858 8.7917114 C 18.214191 8.3063786 18.392159 7.8468339 18.392159 7.413501 C 18.392159 6.9628348 18.227465 6.5819012 17.898132 6.2699015 C 17.586133 5.9579018 17.165377 5.8017131 16.636711 5.8017131 C 16.082044 5.8017131 15.640026 5.9664067 15.310693 6.2957397 C 15.076694 6.5384062 14.925274 6.8242355 14.855941 7.1535685 C 14.829941 7.3009017 14.756099 7.4177849 14.634766 7.5044515 C 14.522099 7.5911181 14.392459 7.6261712 14.245125 7.6088379 C 14.071792 7.5915046 13.93313 7.5134102 13.82913 7.3747437 C 13.72513 7.2274105 13.694329 7.0669692 13.737663 6.8936361 C 13.876329 6.33897 14.145149 5.8841945 14.543815 5.5288615 C 15.055148 5.0781953 15.761733 4.852417 16.663066 4.852417 z M 37.583236 4.9175293 L 39.468392 4.9175293 C 39.615725 4.9175293 39.741113 4.9738447 39.845113 5.0865112 C 39.95778 5.1905111 40.014095 5.316416 40.014095 5.4637492 C 40.014095 5.5850824 39.979559 5.6934607 39.910225 5.7887939 C 39.840892 5.8754605 39.75004 5.9402808 39.637374 5.9836141 L 41.443982 10.403499 L 41.899251 10.403499 C 42.037918 10.403499 42.154801 10.45131 42.250134 10.546643 C 42.345468 10.641976 42.393278 10.75886 42.393278 10.897526 C 42.393278 11.036193 42.345468 11.153076 42.250134 11.248409 C 42.154801 11.343742 42.037918 11.391553 41.899251 11.391553 L 41.847058 11.391553 L 42.549341 13.107727 L 42.66613 13.107727 C 42.813463 13.107727 42.939368 13.164042 43.043368 13.276709 C 43.156034 13.380709 43.212349 13.510866 43.212349 13.666866 C 43.212349 13.814199 43.156034 13.94384 43.043368 14.056506 C 42.939368 14.160506 42.813463 14.212569 42.66613 14.212569 L 42.01604 14.212569 L 41.990202 14.212569 C 41.825535 14.212569 41.691126 14.152001 41.587126 14.030668 C 41.517792 13.970002 41.474234 13.905181 41.456901 13.835848 L 40.521041 11.404472 L 36.621021 11.404472 L 35.750273 13.822412 C 35.715606 13.917745 35.646016 14.009114 35.542017 14.09578 C 35.45535 14.156447 35.368751 14.190983 35.282084 14.19965 C 35.264751 14.208317 35.238719 14.212569 35.204053 14.212569 L 34.528125 14.212569 C 34.380792 14.212569 34.250634 14.160506 34.137968 14.056506 C 34.033968 13.94384 33.981905 13.814199 33.981905 13.666866 C 33.981905 13.510866 34.033968 13.380709 34.137968 13.276709 C 34.250634 13.164042 34.380792 13.107727 34.528125 13.107727 L 34.736381 13.107727 L 35.39939 11.391553 L 35.373035 11.391553 C 35.225701 11.391553 35.104566 11.343742 35.009233 11.248409 C 34.913899 11.153076 34.866089 11.036193 34.866089 10.897526 C 34.866089 10.75886 34.913899 10.641976 35.009233 10.546643 C 35.104566 10.45131 35.225701 10.403499 35.373035 10.403499 L 35.763192 10.403499 L 37.453011 5.9965332 C 37.331678 5.9705332 37.232321 5.9099654 37.154321 5.8146322 C 37.076321 5.7192989 37.037016 5.6024157 37.037016 5.4637492 C 37.037016 5.316416 37.089079 5.1905111 37.193079 5.0865112 C 37.297079 4.9738447 37.427236 4.9175293 37.583236 4.9175293 z M 60.203044 4.9175293 C 60.36771 4.9175293 60.506372 4.9738447 60.619039 5.0865112 C 60.731705 5.1905111 60.788021 5.3249209 60.788021 5.4895874 L 60.788021 5.6585693 C 60.788021 5.8145692 60.731705 5.948979 60.619039 6.0616455 C 60.506372 6.1743121 60.36771 6.2306274 60.203044 6.2306274 C 60.05571 6.2306274 59.925553 6.1743121 59.812887 6.0616455 C 59.70022 5.948979 59.643905 5.8145692 59.643905 5.6585693 L 59.643905 5.4895874 C 59.643905 5.3249209 59.70022 5.1905111 59.812887 5.0865112 C 59.925553 4.9738447 60.05571 4.9175293 60.203044 4.9175293 z M 27.106356 5.1676432 C 26.779623 5.1676432 26.506467 5.3029035 26.286768 5.5733032 C 26.055801 5.826803 25.940535 6.2467918 25.940535 6.8326579 C 25.940535 7.1086909 25.968435 7.3507954 26.024768 7.5592285 C 26.081101 7.7676616 26.174254 7.9423943 26.303821 8.0832275 C 26.529154 8.3705272 26.808096 8.514209 27.140462 8.514209 C 27.534795 8.514209 27.847423 8.3199984 28.078389 7.9312988 C 28.213589 7.7059657 28.280961 7.3312359 28.280961 6.8073364 C 28.280961 6.2609037 28.165695 5.8524879 27.934729 5.5820882 C 27.709396 5.3060552 27.433089 5.1676432 27.106356 5.1676432 z M 38.506177 6.1267578 C 38.47151 6.1267578 38.449731 6.1485368 38.441064 6.1918701 C 38.423731 6.2525367 38.389195 6.3603983 38.337195 6.5163981 C 38.293862 6.672398 38.237546 6.8546182 38.168213 7.062618 C 38.09888 7.2706178 38.020785 7.5001318 37.934119 7.7514648 L 37.674186 8.4795858 C 37.466186 9.0602519 37.236672 9.7015001 36.985339 10.403499 L 40.131401 10.403499 C 39.871401 9.7015001 39.632865 9.0559994 39.416199 8.4666667 C 39.320865 8.2153336 39.230014 7.9682931 39.143347 7.7256266 C 39.056681 7.4742935 38.974334 7.2447796 38.896334 7.0367798 C 38.818334 6.82878 38.752997 6.6508122 38.700997 6.503479 C 38.648997 6.3474792 38.614461 6.2391009 38.597127 6.1784342 C 38.579794 6.135101 38.54951 6.1180912 38.506177 6.1267578 z M 84.201062 7.270874 C 84.729728 7.270874 85.197778 7.3484517 85.605111 7.5044515 C 86.003777 7.6604513 86.30288 7.8687031 86.502214 8.1287028 C 86.580213 8.2327027 86.645034 8.3495859 86.697034 8.4795858 C 86.775034 8.6529189 86.766529 8.8218651 86.671195 8.9865316 C 86.575862 9.1511981 86.4372 9.2425666 86.2552 9.2598999 C 86.1252 9.2772332 86.003548 9.2554542 85.890881 9.1947876 C 85.786881 9.134121 85.709304 9.0475217 85.657304 8.9348551 C 85.587971 8.7788553 85.479592 8.6354239 85.332259 8.505424 C 85.089593 8.3147575 84.742679 8.2196533 84.292013 8.2196533 C 83.763346 8.2196533 83.386665 8.3062526 83.161332 8.4795858 C 82.935999 8.6442523 82.823368 8.8477348 82.823368 9.0904012 C 82.823368 9.246401 82.86641 9.3808108 82.953076 9.4934774 C 83.057076 9.6234772 83.204243 9.7276031 83.39491 9.805603 C 83.455576 9.8229363 83.568207 9.8574727 83.732874 9.9094727 C 83.906207 9.9614726 84.131985 10.022557 84.409318 10.09189 C 85.223984 10.317224 85.795643 10.498927 86.124976 10.637594 C 86.436975 10.767593 86.688268 10.966824 86.878935 11.23549 C 87.060935 11.49549 87.152303 11.824877 87.152303 12.223543 C 87.152303 12.59621 87.039672 12.955881 86.814339 13.302547 C 86.597673 13.63188 86.27679 13.896447 85.852124 14.09578 C 85.418791 14.27778 84.937984 14.368632 84.409318 14.368632 C 83.533986 14.368632 82.861937 14.186412 82.393937 13.822412 C 82.081937 13.579746 81.848171 13.255128 81.692171 12.847795 C 81.622838 12.674461 81.635595 12.51402 81.730929 12.366687 C 81.826262 12.210687 81.960672 12.119835 82.134005 12.093835 C 82.272671 12.067835 82.398576 12.089098 82.511243 12.158431 C 82.632576 12.227764 82.714923 12.327638 82.758256 12.457638 C 82.844923 12.700304 82.987837 12.899534 83.18717 13.055534 C 83.464503 13.2982 83.871985 13.419853 84.409318 13.419853 C 84.946651 13.419853 85.336606 13.311474 85.579272 13.094808 C 85.839272 12.886808 85.968913 12.635515 85.968913 12.340849 C 85.968913 12.080849 85.856282 11.87685 85.630949 11.729517 C 85.474949 11.625517 85.080741 11.495876 84.448075 11.339876 C 83.58141 11.114543 82.996477 10.92807 82.693144 10.780737 C 82.363811 10.624737 82.11677 10.412233 81.952104 10.143567 C 81.787437 9.8749005 81.70509 9.5715446 81.70509 9.2335449 C 81.70509 8.9215452 81.77468 8.6399683 81.913346 8.3886353 C 82.052013 8.1373022 82.237969 7.9205456 82.471969 7.7385457 C 82.645302 7.6172125 82.892342 7.5088342 83.213009 7.413501 C 83.542342 7.3181677 83.871729 7.270874 84.201062 7.270874 z M 47.879248 7.3489054 C 48.269248 7.3489054 48.637424 7.4222306 48.98409 7.5695638 C 49.330756 7.716897 49.586302 7.9033697 49.750968 8.1287028 C 49.915635 8.3627026 50.037287 8.6485319 50.115287 8.9865316 C 50.132621 9.0905315 50.145378 9.2334461 50.154045 9.415446 C 50.162711 9.5974458 50.166964 9.8232241 50.166964 10.09189 L 50.166964 13.068453 L 50.244995 13.068453 C 50.400995 13.068453 50.531152 13.129538 50.635152 13.250871 C 50.747819 13.363537 50.804134 13.49743 50.804134 13.65343 C 50.804134 13.80943 50.747819 13.94384 50.635152 14.056506 C 50.531152 14.160506 50.400995 14.212569 50.244995 14.212569 L 49.594906 14.212569 C 49.438906 14.212569 49.305013 14.160506 49.192346 14.056506 C 49.07968 13.94384 49.023364 13.805178 49.023364 13.640511 L 49.023364 10.130648 C 49.023364 9.6626483 48.979806 9.3157343 48.89314 9.0904012 C 48.806473 8.8737348 48.650284 8.6877788 48.424951 8.531779 C 48.199618 8.4017791 47.935568 8.3364421 47.632235 8.3364421 C 47.138235 8.3364421 46.722249 8.4926308 46.384249 8.8046305 C 46.037583 9.0992969 45.864384 9.6799773 45.864384 10.546643 L 45.864384 13.640511 C 45.864384 13.805178 45.808069 13.94384 45.695402 14.056506 C 45.582735 14.160506 45.448326 14.212569 45.292326 14.212569 L 44.642236 14.212569 C 44.486236 14.212569 44.351827 14.160506 44.23916 14.056506 C 44.126494 13.94384 44.070178 13.80943 44.070178 13.65343 C 44.070178 13.49743 44.126494 13.363537 44.23916 13.250871 C 44.351827 13.129538 44.486236 13.068453 44.642236 13.068453 L 44.707349 13.068453 L 44.707349 8.6356486 L 44.642236 8.6356486 C 44.486236 8.6356486 44.351827 8.5793332 44.23916 8.4666667 C 44.126494 8.3540001 44.070178 8.2195903 44.070178 8.0635905 C 44.070178 7.9075907 44.126494 7.7731809 44.23916 7.6605143 C 44.351827 7.5478478 44.486236 7.4915324 44.642236 7.4915324 L 45.240133 7.4915324 C 45.378799 7.4915324 45.495682 7.5435953 45.591016 7.6475952 C 45.695016 7.7429285 45.747078 7.8640641 45.747078 8.0113973 L 45.747078 8.4537476 C 46.241078 7.7170816 46.951916 7.3489054 47.879248 7.3489054 z M 55.341325 7.3489054 C 55.731324 7.3489054 56.099501 7.4222306 56.446167 7.5695638 C 56.792833 7.716897 57.048379 7.9033697 57.213045 8.1287028 C 57.377712 8.3627026 57.499364 8.6485319 57.577364 8.9865316 C 57.594697 9.0905315 57.607455 9.2334461 57.616121 9.415446 C 57.624788 9.5974458 57.629041 9.8232241 57.629041 10.09189 L 57.629041 13.068453 L 57.707072 13.068453 C 57.863072 13.068453 57.993229 13.129538 58.097229 13.250871 C 58.209896 13.363537 58.266211 13.49743 58.266211 13.65343 C 58.266211 13.80943 58.209896 13.94384 58.097229 14.056506 C 57.993229 14.160506 57.863072 14.212569 57.707072 14.212569 L 57.056982 14.212569 C 56.900983 14.212569 56.766573 14.160506 56.653906 14.056506 C 56.54124 13.94384 56.484924 13.805178 56.484924 13.640511 L 56.484924 10.130648 C 56.484924 9.6626483 56.441883 9.3157343 56.355216 9.0904012 C 56.26855 8.8737348 56.112361 8.6877788 55.887028 8.531779 C 55.661695 8.4017791 55.397645 8.3364421 55.094312 8.3364421 C 54.600312 8.3364421 54.184325 8.4926308 53.846326 8.8046305 C 53.499659 9.0992969 53.325944 9.6799773 53.325944 10.546643 L 53.325944 13.640511 C 53.325944 13.805178 53.269629 13.94384 53.156962 14.056506 C 53.044296 14.160506 52.909886 14.212569 52.753886 14.212569 L 52.104313 14.212569 C 51.948313 14.212569 51.813904 14.160506 51.701237 14.056506 C 51.58857 13.94384 51.532255 13.80943 51.532255 13.65343 C 51.532255 13.49743 51.58857 13.363537 51.701237 13.250871 C 51.813904 13.129538 51.948313 13.068453 52.104313 13.068453 L 52.168909 13.068453 L 52.168909 8.6356486 L 52.104313 8.6356486 C 51.948313 8.6356486 51.813904 8.5793332 51.701237 8.4666667 C 51.58857 8.3540001 51.532255 8.2195903 51.532255 8.0635905 C 51.532255 7.9075907 51.58857 7.7731809 51.701237 7.6605143 C 51.813904 7.5478478 51.948313 7.4915324 52.104313 7.4915324 L 52.702209 7.4915324 C 52.840876 7.4915324 52.957759 7.5435953 53.053092 7.6475952 C 53.157092 7.7429285 53.209155 7.8640641 53.209155 8.0113973 L 53.209155 8.4537476 C 53.703155 7.7170816 54.413992 7.3489054 55.341325 7.3489054 z M 72.826046 7.3489054 C 73.727378 7.3489054 74.459995 7.6565138 75.023328 8.2718465 C 75.603994 8.8611793 75.894076 9.7234365 75.894076 10.858769 C 75.894076 10.945435 75.863792 11.014508 75.803125 11.066508 C 75.742458 11.118508 75.672869 11.144539 75.594869 11.144539 L 70.863375 11.144539 C 70.906708 11.907205 71.114443 12.470876 71.487109 12.834875 C 71.859776 13.242208 72.332078 13.445691 72.904077 13.445691 C 73.31141 13.445691 73.662576 13.337313 73.957243 13.120646 C 74.052576 13.03398 74.14768 12.934106 74.243014 12.82144 C 74.347013 12.708773 74.433613 12.579133 74.502946 12.431799 C 74.563613 12.327799 74.645959 12.245453 74.749959 12.184786 C 74.862626 12.124119 74.975257 12.10234 75.087923 12.119674 C 75.191923 12.137007 75.283292 12.175796 75.361292 12.236462 C 75.439291 12.288462 75.499859 12.353799 75.543193 12.431799 C 75.586526 12.509799 75.608305 12.596399 75.608305 12.691732 C 75.616972 12.787065 75.599445 12.877917 75.556112 12.964583 C 75.452112 13.137916 75.339481 13.294105 75.218148 13.432772 C 75.096815 13.571438 74.958152 13.692574 74.802153 13.796574 C 74.550819 14.004574 74.26499 14.151741 73.944324 14.238407 C 73.632324 14.333741 73.281158 14.381551 72.891158 14.381551 C 71.903159 14.381551 71.118996 14.078195 70.53833 13.471529 C 69.966331 12.87353 69.679985 12.024547 69.679985 10.923881 C 69.679985 10.343215 69.749574 9.8401122 69.888241 9.415446 C 70.026907 8.9821131 70.247916 8.605432 70.551249 8.2847656 C 71.123249 7.6607662 71.88138 7.3489054 72.826046 7.3489054 z M 91.247144 7.3618245 C 91.836476 7.3618245 92.300273 7.4308973 92.638273 7.5695638 C 92.984939 7.690897 93.253242 7.8555907 93.443909 8.0635905 C 93.530575 8.1675904 93.600165 8.2844736 93.652165 8.4144735 C 93.704165 8.5444733 93.751975 8.6831356 93.795308 8.8304687 C 93.812642 8.9344686 93.825399 9.0731309 93.834066 9.246464 C 93.842732 9.4197972 93.846985 9.6323014 93.846985 9.8836344 L 93.846985 11.404472 C 93.846985 12.149804 93.860259 12.704453 93.886259 13.068453 L 93.937935 13.068453 C 94.093935 13.068453 94.224093 13.124768 94.328092 13.237435 C 94.440759 13.350101 94.497074 13.484511 94.497074 13.640511 C 94.497074 13.796511 94.440759 13.930921 94.328092 14.043587 C 94.224093 14.147587 94.093935 14.19965 93.937935 14.19965 L 93.379313 14.19965 C 93.25798 14.19965 93.149602 14.169366 93.054268 14.1087 C 92.967602 14.039366 92.906517 13.943745 92.871851 13.822412 C 92.854517 13.779079 92.84176 13.731785 92.833093 13.679785 C 92.824427 13.636452 92.815922 13.588641 92.807255 13.536641 C 92.798588 13.484641 92.794336 13.432579 92.794336 13.380579 C 92.361003 13.735912 91.957774 13.987205 91.585107 14.134538 C 91.169108 14.281871 90.748869 14.355713 90.324202 14.355713 C 89.587537 14.355713 89.023866 14.173493 88.633866 13.809493 C 88.243867 13.462827 88.048889 13.003799 88.048889 12.431799 C 88.048889 12.085133 88.122731 11.790282 88.270064 11.547616 C 88.417397 11.261616 88.608123 11.040607 88.842122 10.884607 C 88.963456 10.79794 89.093613 10.724098 89.232279 10.663432 C 89.379613 10.602765 89.52678 10.551219 89.674113 10.507886 C 89.78678 10.481886 89.925442 10.455854 90.090108 10.429854 C 90.254775 10.403854 90.449752 10.37357 90.675085 10.338904 C 91.143085 10.286904 91.541545 10.230072 91.870878 10.169405 C 92.200211 10.100072 92.473283 10.030999 92.68995 9.9616659 C 92.698616 9.8836659 92.702869 9.8188457 92.702869 9.7668457 L 92.702869 9.6624593 C 92.702869 9.1944598 92.595007 8.8650724 92.378341 8.6744059 C 92.083674 8.4230728 91.654413 8.2976847 91.091081 8.2976847 C 90.562415 8.2976847 90.168207 8.3885365 89.908207 8.5705363 C 89.743541 8.7005362 89.600626 8.9045354 89.479293 9.1818685 C 89.43596 9.3032017 89.357865 9.3940534 89.245199 9.4547201 C 89.132532 9.50672 89.01088 9.5237298 88.88088 9.5063965 C 88.69888 9.4890632 88.560218 9.4024639 88.464884 9.246464 C 88.378218 9.0817975 88.373965 8.9128514 88.451965 8.7395182 C 88.529965 8.5488518 88.625586 8.3931797 88.738253 8.2718465 C 88.850919 8.1245133 88.989582 7.994356 89.154248 7.8816895 C 89.327581 7.7690229 89.522559 7.6734019 89.739225 7.595402 C 90.163892 7.4394022 90.666477 7.3618245 91.247144 7.3618245 z M 80.015271 7.4005819 C 80.136604 7.4005819 80.253487 7.4090868 80.366154 7.4264201 C 80.487487 7.4350867 80.60437 7.4611182 80.717037 7.5044515 C 80.855703 7.5477848 80.955577 7.6349008 81.016243 7.7649007 C 81.07691 7.8862339 81.081163 8.011622 81.029163 8.1416219 C 80.985829 8.2456218 80.911987 8.3279686 80.807987 8.3886353 C 80.712654 8.4493019 80.608528 8.4710809 80.495862 8.4537476 C 80.400529 8.4364142 80.313929 8.4273926 80.235929 8.4273926 C 80.157929 8.4273926 80.075583 8.4364142 79.988916 8.4537476 C 79.893583 8.4710809 79.789974 8.5013648 79.677307 8.5446981 C 79.573307 8.5793647 79.477686 8.622406 79.39102 8.6744059 C 79.148353 8.8217391 78.975155 9.0560223 78.871155 9.3766886 C 78.741155 9.7840216 78.676335 10.22604 78.676335 10.702706 L 78.676335 13.666866 C 78.676335 13.822866 78.620019 13.956759 78.507353 14.069425 C 78.403353 14.182092 78.273195 14.238407 78.117196 14.238407 C 77.952529 14.238407 77.813867 14.182092 77.7012 14.069425 C 77.588534 13.956759 77.532218 13.822866 77.532218 13.666866 L 77.532218 8.6227295 L 77.389075 8.6227295 C 77.241742 8.6227295 77.111584 8.5664141 76.998918 8.4537476 C 76.886251 8.341081 76.829936 8.2109237 76.829936 8.0635905 C 76.829936 7.9075907 76.886251 7.7731809 76.998918 7.6605143 C 77.111584 7.5478478 77.241742 7.4915324 77.389075 7.4915324 L 77.99989 7.4915324 C 78.017223 7.4915324 78.03475 7.4957848 78.052083 7.5044515 L 78.130115 7.5044515 C 78.251448 7.5217848 78.351321 7.5828694 78.429321 7.6868693 C 78.515988 7.7822025 78.559029 7.8900641 78.559029 8.0113973 L 78.559029 8.5188599 C 78.697696 8.2761934 78.810326 8.0939732 78.896993 7.97264 C 78.992326 7.8426401 79.096452 7.7427667 79.209119 7.6734334 C 79.330452 7.5954335 79.460609 7.5306132 79.599276 7.4786133 C 79.746609 7.4266133 79.885271 7.4005819 80.015271 7.4005819 z M 98.475126 7.4005819 C 98.596459 7.4005819 98.713343 7.4090868 98.826009 7.4264201 C 98.947342 7.4350867 99.064226 7.4611182 99.176892 7.5044515 C 99.315559 7.5477848 99.415432 7.6349008 99.476099 7.7649007 C 99.536765 7.8862339 99.541018 8.011622 99.489018 8.1416219 C 99.445684 8.2456218 99.371843 8.3279686 99.267843 8.3886353 C 99.172509 8.4493019 99.0689 8.4710809 98.956234 8.4537476 C 98.8609 8.4364142 98.774301 8.4273926 98.696301 8.4273926 C 98.618301 8.4273926 98.535955 8.4364142 98.449288 8.4537476 C 98.353955 8.4710809 98.249829 8.5013648 98.137162 8.5446981 C 98.033162 8.5793647 97.937541 8.622406 97.850875 8.6744059 C 97.608208 8.8217391 97.43501 9.0560223 97.33101 9.3766886 C 97.20101 9.7840216 97.13619 10.22604 97.13619 10.702706 L 97.13619 13.666866 C 97.13619 13.822866 97.079874 13.956759 96.967208 14.069425 C 96.863208 14.182092 96.733051 14.238407 96.577051 14.238407 C 96.412384 14.238407 96.273722 14.182092 96.161056 14.069425 C 96.048389 13.956759 95.992074 13.822866 95.992074 13.666866 L 95.992074 8.6227295 L 95.84893 8.6227295 C 95.701597 8.6227295 95.571956 8.5664141 95.45929 8.4537476 C 95.346623 8.341081 95.290308 8.2109237 95.290308 8.0635905 C 95.290308 7.9075907 95.346623 7.7731809 95.45929 7.6605143 C 95.571956 7.5478478 95.701597 7.4915324 95.84893 7.4915324 L 96.460262 7.4915324 C 96.477595 7.4915324 96.494605 7.4957848 96.511938 7.5044515 L 96.58997 7.5044515 C 96.711303 7.5217848 96.811177 7.5828694 96.889176 7.6868693 C 96.975843 7.7822025 97.018884 7.8900641 97.018884 8.0113973 L 97.018884 8.5188599 C 97.157551 8.2761934 97.270182 8.0939732 97.356848 7.97264 C 97.452181 7.8426401 97.556307 7.7427667 97.668974 7.6734334 C 97.790307 7.5954335 97.920464 7.5306132 98.059131 7.4786133 C 98.206464 7.4266133 98.345126 7.4005819 98.475126 7.4005819 z M 59.579309 7.4786133 L 60.203044 7.4786133 C 60.36771 7.4786133 60.506372 7.5349287 60.619039 7.6475952 C 60.731705 7.7602618 60.788021 7.8946715 60.788021 8.0506714 L 60.788021 13.068453 L 60.853133 13.068453 C 61.009133 13.068453 61.143543 13.124768 61.256209 13.237435 C 61.368876 13.350101 61.425191 13.488764 61.425191 13.65343 C 61.425191 13.800763 61.368876 13.930921 61.256209 14.043587 C 61.143543 14.156254 61.009133 14.212569 60.853133 14.212569 L 60.203044 14.212569 C 60.05571 14.212569 59.925553 14.156254 59.812887 14.043587 C 59.70022 13.930921 59.643905 13.800763 59.643905 13.65343 L 59.643905 13.640511 L 59.643905 8.6227295 L 59.579309 8.6227295 C 59.423309 8.6227295 59.288899 8.5664141 59.176233 8.4537476 C 59.063566 8.341081 59.007251 8.2066712 59.007251 8.0506714 C 59.007251 7.8946715 59.063566 7.7602618 59.176233 7.6475952 C 59.288899 7.5349287 59.423309 7.4786133 59.579309 7.4786133 z M 100.33393 7.4786133 L 100.86723 7.4786133 L 100.9189 7.4786133 C 101.03157 7.4872799 101.13144 7.5218163 101.21811 7.5824829 C 101.30478 7.6431495 101.3696 7.7254964 101.41293 7.8294963 L 102.68727 11.404472 C 102.78261 11.655805 102.8692 11.911867 102.9472 12.171867 C 103.03387 12.431867 103.11197 12.700169 103.1813 12.977502 C 103.25063 12.717503 103.32396 12.457705 103.40196 12.197705 C 103.47996 11.937705 103.56656 11.68216 103.66189 11.430827 L 104.97499 7.8294963 C 105.01832 7.7254964 105.08366 7.6431495 105.17032 7.5824829 C 105.26566 7.5131496 105.36927 7.4786133 105.48193 7.4786133 L 105.49485 7.4786133 L 105.50829 7.4786133 L 106.01523 7.4786133 C 106.17123 7.4786133 106.30564 7.5349287 106.41831 7.6475952 C 106.53098 7.7602618 106.58729 7.8946715 106.58729 8.0506714 C 106.58729 8.2066712 106.53098 8.341081 106.41831 8.4537476 C 106.30564 8.5664141 106.17123 8.6227295 106.01523 8.6227295 L 105.83333 8.6227295 L 103.67533 14.381551 C 103.40666 15.10955 103.1899 15.62541 103.02524 15.928743 C 102.83457 16.30141 102.60029 16.578734 102.32295 16.760734 C 102.05429 16.934067 101.74243 17.020667 101.38709 17.020667 C 101.27443 17.020667 101.15329 17.007392 101.02329 16.981392 C 100.90196 16.964059 100.80208 16.912513 100.72408 16.825846 C 100.65475 16.73918 100.61119 16.635054 100.59386 16.513721 C 100.57653 16.349054 100.62434 16.20614 100.737 16.084806 C 100.84967 15.963473 100.98833 15.902905 101.153 15.902905 L 101.16592 15.902905 C 101.43458 15.902905 101.64284 15.859347 101.79017 15.772681 C 101.9375 15.694681 102.06289 15.577798 102.16689 15.421798 C 102.22756 15.309131 102.34496 15.022785 102.51829 14.563452 C 102.52696 14.528786 102.53971 14.489997 102.55705 14.446663 C 102.57438 14.40333 102.59191 14.347015 102.60924 14.277681 L 100.47707 8.6227295 L 100.33393 8.6227295 C 100.17793 8.6227295 100.04352 8.5664141 99.930851 8.4537476 C 99.818185 8.341081 99.761869 8.2066712 99.761869 8.0506714 C 99.761869 7.8946715 99.818185 7.7602618 99.930851 7.6475952 C 100.04352 7.5349287 100.17793 7.4786133 100.33393 7.4786133 z M 62.738289 7.4915324 L 63.205961 7.4915324 C 63.223294 7.4915324 63.236569 7.4957848 63.245235 7.5044515 L 63.283993 7.5044515 C 63.301326 7.5131182 63.318852 7.5178874 63.336186 7.5178874 C 63.353519 7.5178874 63.371046 7.5221398 63.388379 7.5308065 C 63.414379 7.5394731 63.431389 7.5437256 63.440055 7.5437256 C 63.561389 7.5957255 63.661262 7.6950822 63.739262 7.8424154 L 63.739262 7.8558512 L 63.752181 7.8687703 L 65.05236 11.521777 C 65.199693 11.937777 65.342608 12.3883 65.481274 12.873633 C 65.533274 12.7003 65.593842 12.509574 65.663175 12.301575 C 65.732509 12.084908 65.810603 11.851142 65.89727 11.599809 L 67.262044 7.8687703 C 67.305378 7.7561038 67.370715 7.6647353 67.457381 7.595402 C 67.552714 7.5260688 67.660576 7.4915324 67.781909 7.4915324 L 68.263017 7.4915324 C 68.419017 7.4915324 68.553426 7.5478478 68.666093 7.6605143 C 68.778759 7.7731809 68.835075 7.9075907 68.835075 8.0635905 C 68.835075 8.2195903 68.778759 8.3540001 68.666093 8.4666667 C 68.553426 8.5706666 68.419017 8.6227295 68.263017 8.6227295 L 68.133309 8.6227295 L 66.208879 13.718542 C 66.148212 13.865876 66.053108 13.987528 65.923108 14.082861 C 65.801775 14.169528 65.65886 14.212569 65.494194 14.212569 C 65.329527 14.212569 65.18236 14.169528 65.05236 14.082861 C 64.92236 13.987528 64.830992 13.865876 64.778992 13.718542 L 62.842159 8.6227295 L 62.738289 8.6227295 C 62.58229 8.6227295 62.44788 8.5706666 62.335213 8.4666667 C 62.222547 8.3540001 62.166231 8.2195903 62.166231 8.0635905 C 62.166231 7.9075907 62.222547 7.7731809 62.335213 7.6605143 C 62.44788 7.5478478 62.58229 7.4915324 62.738289 7.4915324 z M 72.826046 8.2847656 C 72.306046 8.2847656 71.868281 8.4579642 71.512948 8.8046305 C 71.148948 9.1426302 70.95397 9.6191847 70.92797 10.234517 L 74.685364 10.234517 C 74.659364 9.939851 74.607301 9.6885581 74.529301 9.4805583 C 74.459968 9.2725585 74.364347 9.0951074 74.243014 8.9477743 C 73.905014 8.5057747 73.432712 8.2847656 72.826046 8.2847656 z M 92.68995 10.832414 C 92.490616 10.91908 92.235071 11.001427 91.923071 11.079427 C 91.619738 11.14876 91.260067 11.214097 90.844067 11.274764 C 90.610068 11.309431 90.410838 11.343967 90.246171 11.378634 C 90.081505 11.4133 89.951347 11.452089 89.856014 11.495422 C 89.656681 11.590756 89.509514 11.71666 89.414181 11.87266 C 89.310181 12.02866 89.258118 12.206111 89.258118 12.405444 C 89.258118 12.700111 89.370748 12.951404 89.596082 13.159403 C 89.830081 13.367403 90.163721 13.471529 90.597054 13.471529 C 91.030387 13.471529 91.420342 13.372172 91.767008 13.172839 C 92.105008 12.982173 92.352049 12.721858 92.508049 12.392525 C 92.629382 12.149859 92.68995 11.773178 92.68995 11.261845 L 92.68995 10.832414 z " />
</svg>
