<?xml version="1.0" encoding="UTF-8" standalone="no"?>
<svg
   width="120mm"
   height="20mm"
   viewBox="0 0 120 20"
   version="1.1"
   id="svg8"
   xmlns="http://www.w3.org/2000/svg"
   xmlns:svg="http://www.w3.org/2000/svg"
   xmlns:rdf="http://www.w3.org/1999/02/22-rdf-syntax-ns#"
   xmlns:cc="http://creativecommons.org/ns#"
   xmlns:dc="http://purl.org/dc/elements/1.1/">
  <defs
     id="defs2" />
  <metadata
     id="metadata5">
    <rdf:RDF>
      <cc:Work
         rdf:about="">
        <dc:format>image/svg+xml</dc:format>
        <dc:type
           rdf:resource="http://purl.org/dc/dcmitype/StillImage" />
      </cc:Work>
    </rdf:RDF>
  </metadata>
  <path
     id="path835"
     style="fill:#000000;fill-opacity:1;stroke:none;stroke-width:0.265;stroke-linecap:butt;stroke-linejoin:miter;stroke-miterlimit:4;stroke-dasharray:none;stroke-opacity:1"
     d="M 9.9999064 0 L 0 9.9999064 L 9.9999064 19.999813 L 110 19.999813 L 119.99991 9.9999064 L 110 0 L 9.9999064 0 z M 25.881108 2.9791463 L 26.295036 2.9791463 C 26.300669 2.9791463 26.305939 2.982298 26.311572 2.9879313 L 26.345679 2.9879313 L 26.379268 2.9879313 C 26.407435 2.9935646 26.430065 3.0019861 26.446965 3.0132528 L 26.514661 3.0468424 L 26.522929 3.0468424 C 26.573629 3.0806424 26.616253 3.1259014 26.650053 3.1822347 C 26.683853 3.238568 26.700696 3.3006699 26.700696 3.3682699 L 26.700696 4.6777507 L 27.18232 4.6777507 C 27.26682 4.6777507 27.337343 4.7061667 27.393677 4.7625 C 27.455643 4.8188333 27.486178 4.8919916 27.486178 4.9821248 C 27.486178 5.0609914 27.455643 5.1315148 27.393677 5.1934814 C 27.337343 5.2498147 27.26682 5.277714 27.18232 5.277714 L 26.700696 5.277714 L 26.700696 7.6439779 C 26.700696 7.8805776 26.714387 8.0295292 26.742554 8.0914958 C 26.75382 8.1252957 26.77118 8.1537118 26.793713 8.1762451 L 26.860893 8.2439412 C 26.934126 8.2833745 27.027279 8.3028524 27.139945 8.3028524 L 27.173535 8.3028524 C 27.269302 8.297219 27.351398 8.3256351 27.418998 8.3876017 C 27.486598 8.443935 27.53134 8.5139417 27.553874 8.5984416 C 27.56514 8.7054748 27.539876 8.8012626 27.477909 8.8857625 C 27.415943 8.9702624 27.328576 9.0181564 27.21591 9.029423 C 27.176477 9.0350563 27.140156 9.038208 27.106356 9.038208 L 27.004553 9.038208 C 26.71162 9.038208 26.492145 8.992949 26.345679 8.9028158 C 26.187946 8.8183158 26.072163 8.6972636 25.99893 8.5395304 C 25.936963 8.4099639 25.906429 8.097336 25.906429 7.6016032 L 25.906429 5.277714 L 25.64443 5.277714 C 25.554296 5.277714 25.477986 5.2498147 25.41602 5.1934814 C 25.354053 5.1315148 25.323002 5.0609914 25.323002 4.9821248 C 25.323002 4.8919916 25.354053 4.8188333 25.41602 4.7625 C 25.477986 4.7061667 25.554296 4.6777507 25.64443 4.6777507 L 25.906429 4.6777507 L 25.906429 3.7651449 L 25.881108 3.7651449 C 25.774074 3.7651449 25.680921 3.7288241 25.602055 3.6555908 C 25.523188 3.5767242 25.483716 3.4835713 25.483716 3.3765381 C 25.483716 3.2638715 25.523188 3.1707186 25.602055 3.0974854 C 25.680921 3.0186188 25.774074 2.9791463 25.881108 2.9791463 z M 22.745898 4.5005005 C 23.089531 4.5005005 23.393738 4.5510293 23.658504 4.6524292 C 23.917637 4.7538291 24.111848 4.8890894 24.241414 5.0580892 C 24.292114 5.1256891 24.334738 5.2014823 24.368538 5.2859823 C 24.419238 5.3986488 24.413452 5.5086447 24.351485 5.6156779 C 24.289519 5.7227111 24.199517 5.7821782 24.081217 5.7934448 C 23.996718 5.8047115 23.917773 5.7905034 23.844539 5.7510701 C 23.776939 5.7116369 23.725894 5.6553215 23.692094 5.5820882 C 23.647027 5.4806883 23.577021 5.3875354 23.481254 5.3030355 C 23.323521 5.1791023 23.098259 5.1170003 22.805326 5.1170003 C 22.461693 5.1170003 22.216437 5.1733157 22.069971 5.2859823 C 21.923504 5.3930155 21.850346 5.5256409 21.850346 5.683374 C 21.850346 5.7847739 21.878245 5.8721403 21.934578 5.9453735 C 22.002178 6.0298734 22.097966 6.0972452 22.221899 6.1479451 C 22.261333 6.1592118 22.334491 6.1818413 22.441524 6.2156413 C 22.554191 6.2494412 22.701024 6.2889137 22.881291 6.3339803 C 23.410823 6.4804468 23.782402 6.5988642 23.996468 6.6889974 C 24.199268 6.7734973 24.362944 6.902971 24.486877 7.0776042 C 24.605177 7.246604 24.664128 7.4608092 24.664128 7.7199422 C 24.664128 7.9621753 24.590969 8.1958583 24.444503 8.4211914 C 24.30367 8.6352579 24.095251 8.8068389 23.819218 8.9364054 C 23.537552 9.0547053 23.224924 9.1141724 22.881291 9.1141724 C 22.312325 9.1141724 21.875493 8.995755 21.571293 8.7591553 C 21.368493 8.6014221 21.21639 8.3903686 21.11499 8.1256022 C 21.069924 8.0129357 21.078345 7.9087264 21.140312 7.8129598 C 21.202278 7.7115599 21.289645 7.6520929 21.402311 7.6351929 C 21.492444 7.6182929 21.574024 7.6325009 21.647257 7.6775675 C 21.726124 7.7226342 21.779805 7.787371 21.807971 7.8718709 C 21.864304 8.0296041 21.957457 8.1590778 22.087024 8.2604777 C 22.26729 8.4182109 22.532024 8.4971558 22.881291 8.4971558 C 23.230557 8.4971558 23.483718 8.4266323 23.641451 8.2857992 C 23.810451 8.1505993 23.895182 7.9874397 23.895182 7.7959066 C 23.895182 7.6269067 23.822024 7.4942814 23.675557 7.3985148 C 23.574158 7.3309149 23.317845 7.2467002 22.906612 7.1453003 C 22.343279 6.9988338 21.962763 6.8777815 21.765597 6.782015 C 21.55153 6.6806151 21.391005 6.5422031 21.283972 6.36757 C 21.176939 6.1929368 21.123775 5.9960914 21.123775 5.7763916 C 21.123775 5.5735918 21.168517 5.3904376 21.258651 5.2270711 C 21.348784 5.0637046 21.469836 4.9226578 21.621936 4.8043579 C 21.734603 4.7254913 21.895127 4.6554847 22.10356 4.5935181 C 22.317627 4.5315515 22.531832 4.5005005 22.745898 4.5005005 z M 35.571472 4.9175293 L 37.456628 4.9175293 C 37.603962 4.9175293 37.729866 4.9738447 37.833866 5.0865112 C 37.946533 5.1905111 38.002848 5.316416 38.002848 5.4637492 C 38.002848 5.5850824 37.968312 5.6934607 37.898979 5.7887939 C 37.829645 5.8754605 37.738277 5.9402808 37.62561 5.9836141 L 39.432735 10.403499 L 39.887488 10.403499 C 40.026154 10.403499 40.143554 10.45131 40.238888 10.546643 C 40.334221 10.641976 40.381514 10.75886 40.381514 10.897526 C 40.381514 11.036193 40.334221 11.153076 40.238888 11.248409 C 40.143554 11.343742 40.026154 11.391553 39.887488 11.391553 L 39.835811 11.391553 L 40.537577 13.107727 L 40.654883 13.107727 C 40.802216 13.107727 40.927604 13.164042 41.031604 13.276709 C 41.144271 13.380709 41.200586 13.510866 41.200586 13.666866 C 41.200586 13.814199 41.144271 13.94384 41.031604 14.056506 C 40.927604 14.160506 40.802216 14.212569 40.654883 14.212569 L 40.004793 14.212569 L 39.978955 14.212569 C 39.814289 14.212569 39.679879 14.152001 39.575879 14.030668 C 39.506546 13.970002 39.462988 13.905181 39.445654 13.835848 L 38.509794 11.404472 L 34.609774 11.404472 L 33.738509 13.822412 C 33.703842 13.917745 33.63477 14.009114 33.53077 14.09578 C 33.444103 14.156447 33.357504 14.190983 33.270837 14.19965 C 33.253504 14.208317 33.227473 14.212569 33.192806 14.212569 L 32.516878 14.212569 C 32.369545 14.212569 32.239388 14.160506 32.126721 14.056506 C 32.022721 13.94384 31.970658 13.814199 31.970658 13.666866 C 31.970658 13.510866 32.022721 13.380709 32.126721 13.276709 C 32.239388 13.164042 32.369545 13.107727 32.516878 13.107727 L 32.724618 13.107727 L 33.387626 11.391553 L 33.361788 11.391553 C 33.214455 11.391553 33.092802 11.343742 32.997469 11.248409 C 32.902136 11.153076 32.854842 11.036193 32.854842 10.897526 C 32.854842 10.75886 32.902136 10.641976 32.997469 10.546643 C 33.092802 10.45131 33.214455 10.403499 33.361788 10.403499 L 33.751945 10.403499 L 35.441764 5.9965332 C 35.320431 5.9705332 35.220558 5.9099654 35.142558 5.8146322 C 35.064558 5.7192989 35.025769 5.6024157 35.025769 5.4637492 C 35.025769 5.316416 35.077832 5.1905111 35.181832 5.0865112 C 35.285832 4.9738447 35.415472 4.9175293 35.571472 4.9175293 z M 58.191797 4.9175293 C 58.356463 4.9175293 58.495126 4.9738447 58.607792 5.0865112 C 58.720459 5.1905111 58.776774 5.3249209 58.776774 5.4895874 L 58.776774 5.6585693 C 58.776774 5.8145692 58.720459 5.948979 58.607792 6.0616455 C 58.495126 6.1743121 58.356463 6.2306274 58.191797 6.2306274 C 58.044464 6.2306274 57.914306 6.1743121 57.80164 6.0616455 C 57.688973 5.948979 57.632658 5.8145692 57.632658 5.6585693 L 57.632658 5.4895874 C 57.632658 5.3249209 57.688973 5.1905111 57.80164 5.0865112 C 57.914306 4.9738447 58.044464 4.9175293 58.191797 4.9175293 z M 18.375106 4.9304484 C 18.496439 4.9304484 18.600565 4.9782589 18.687231 5.0735921 C 18.782565 5.1602587 18.830375 5.268637 18.830375 5.3986369 L 18.830375 13.081889 L 18.986438 13.081889 C 19.142438 13.081889 19.272078 13.138204 19.376078 13.250871 C 19.488745 13.363537 19.545577 13.493178 19.545577 13.640511 C 19.545577 13.805178 19.488745 13.94384 19.376078 14.056506 C 19.272078 14.160506 19.142438 14.212569 18.986438 14.212569 L 17.517277 14.212569 C 17.361277 14.212569 17.226867 14.160506 17.114201 14.056506 C 17.010201 13.94384 16.958138 13.805178 16.958138 13.640511 C 16.958138 13.493178 17.010201 13.363537 17.114201 13.250871 C 17.226867 13.138204 17.361277 13.081889 17.517277 13.081889 L 17.686259 13.081889 L 17.686259 6.9845866 C 17.556259 7.1145865 17.400587 7.2447438 17.218587 7.3747437 C 17.036587 7.5047435 16.832588 7.6349008 16.607255 7.7649007 C 16.451255 7.8689006 16.299836 7.9554999 16.152502 8.0248332 C 15.987836 8.1114998 15.823142 8.1067305 15.658476 8.0113973 C 15.502476 7.9073974 15.424382 7.7602303 15.424382 7.5695638 C 15.424382 7.3702307 15.510981 7.2188111 15.684314 7.1148112 C 15.95298 6.9848113 16.200021 6.8418967 16.425354 6.6858968 C 16.659354 6.529897 16.880363 6.3604341 17.088363 6.1784342 C 17.469696 5.8317679 17.759777 5.4938756 17.959111 5.1645426 C 18.054444 5.0085428 18.193106 4.9304484 18.375106 4.9304484 z M 36.49493 6.1267578 C 36.460263 6.1267578 36.438484 6.1485368 36.429818 6.1918701 C 36.412484 6.2525367 36.377948 6.3603983 36.325948 6.5163981 C 36.282615 6.672398 36.226299 6.8546182 36.156966 7.062618 C 36.087633 7.2706178 36.009538 7.5001318 35.922872 7.7514648 L 35.662939 8.4795858 C 35.45494 9.0602519 35.224909 9.7015001 34.973576 10.403499 L 38.119637 10.403499 C 37.859637 9.7015001 37.621618 9.0559994 37.404952 8.4666667 C 37.309619 8.2153336 37.21825 7.9682931 37.131584 7.7256266 C 37.044917 7.4742935 36.96257 7.2447796 36.88457 7.0367798 C 36.80657 6.82878 36.74175 6.6508122 36.68975 6.503479 C 36.63775 6.3474792 36.603214 6.2391009 36.585881 6.1784342 C 36.568547 6.135101 36.538263 6.1180912 36.49493 6.1267578 z M 82.189815 7.270874 C 82.718481 7.270874 83.186531 7.3484517 83.593864 7.5044515 C 83.99253 7.6604513 84.291117 7.8687031 84.49045 8.1287028 C 84.56845 8.2327027 84.633787 8.3495859 84.685787 8.4795858 C 84.763787 8.6529189 84.755282 8.8218651 84.659949 8.9865316 C 84.564615 9.1511981 84.425437 9.2425666 84.243437 9.2598999 C 84.113437 9.2772332 83.992301 9.2554542 83.879635 9.1947876 C 83.775635 9.134121 83.69754 9.0475217 83.64554 8.9348551 C 83.576207 8.7788553 83.467829 8.6354239 83.320496 8.505424 C 83.077829 8.3147575 82.731432 8.2196533 82.280766 8.2196533 C 81.7521 8.2196533 81.374902 8.3062526 81.149569 8.4795858 C 80.924236 8.6442523 80.811605 8.8477348 80.811605 9.0904012 C 80.811605 9.246401 80.855163 9.3808108 80.941829 9.4934774 C 81.045829 9.6234772 81.192996 9.7276031 81.383663 9.805603 C 81.44433 9.8229363 81.55696 9.8574727 81.721627 9.9094727 C 81.89496 9.9614726 82.120221 10.022557 82.397555 10.09189 C 83.21222 10.317224 83.784396 10.498927 84.113729 10.637594 C 84.425729 10.767593 84.677022 10.966824 84.867688 11.23549 C 85.049688 11.49549 85.14054 11.824877 85.14054 12.223543 C 85.14054 12.59621 85.027909 12.955881 84.802576 13.302547 C 84.585909 13.63188 84.265544 13.896447 83.840877 14.09578 C 83.407544 14.27778 82.926221 14.368632 82.397555 14.368632 C 81.522222 14.368632 80.85069 14.186412 80.38269 13.822412 C 80.070691 13.579746 79.836924 13.255128 79.680924 12.847795 C 79.611591 12.674461 79.624349 12.51402 79.719682 12.366687 C 79.815015 12.210687 79.949425 12.119835 80.122758 12.093835 C 80.261425 12.067835 80.386813 12.089098 80.499479 12.158431 C 80.620812 12.227764 80.703159 12.327638 80.746493 12.457638 C 80.833159 12.700304 80.976591 12.899534 81.175924 13.055534 C 81.453257 13.2982 81.860222 13.419853 82.397555 13.419853 C 82.934887 13.419853 83.324843 13.311474 83.567509 13.094808 C 83.827509 12.886808 83.957666 12.635515 83.957666 12.340849 C 83.957666 12.080849 83.845035 11.87685 83.619702 11.729517 C 83.463702 11.625517 83.069495 11.495876 82.436829 11.339876 C 81.570163 11.114543 80.98523 10.92807 80.681897 10.780737 C 80.352564 10.624737 80.105523 10.412233 79.940857 10.143567 C 79.77619 9.8749005 79.693844 9.5715446 79.693844 9.2335449 C 79.693844 8.9215452 79.762916 8.6399683 79.901583 8.3886353 C 80.040249 8.1373022 80.226722 7.9205456 80.460722 7.7385457 C 80.634055 7.6172125 80.881096 7.5088342 81.201762 7.413501 C 81.531095 7.3181677 81.860482 7.270874 82.189815 7.270874 z M 45.867485 7.3489054 C 46.257484 7.3489054 46.626177 7.4222306 46.972843 7.5695638 C 47.31951 7.716897 47.575055 7.9033697 47.739722 8.1287028 C 47.904388 8.3627026 48.025524 8.6485319 48.103524 8.9865316 C 48.120857 9.0905315 48.134131 9.2334461 48.142798 9.415446 C 48.151465 9.5974458 48.155717 9.8232241 48.155717 10.09189 L 48.155717 13.068453 L 48.233748 13.068453 C 48.389748 13.068453 48.519906 13.129538 48.623905 13.250871 C 48.736572 13.363537 48.792887 13.49743 48.792887 13.65343 C 48.792887 13.80943 48.736572 13.94384 48.623905 14.056506 C 48.519906 14.160506 48.389748 14.212569 48.233748 14.212569 L 47.583659 14.212569 C 47.427659 14.212569 47.293249 14.160506 47.180583 14.056506 C 47.067916 13.94384 47.011601 13.805178 47.011601 13.640511 L 47.011601 10.130648 C 47.011601 9.6626483 46.968559 9.3157343 46.881893 9.0904012 C 46.795226 8.8737348 46.639038 8.6877788 46.413704 8.531779 C 46.188371 8.4017791 45.923804 8.3364421 45.620471 8.3364421 C 45.126472 8.3364421 44.710485 8.4926308 44.372485 8.8046305 C 44.025819 9.0992969 43.85262 9.6799773 43.85262 10.546643 L 43.85262 13.640511 C 43.85262 13.805178 43.796305 13.94384 43.683639 14.056506 C 43.570972 14.160506 43.436562 14.212569 43.280562 14.212569 L 42.630473 14.212569 C 42.474473 14.212569 42.34058 14.160506 42.227913 14.056506 C 42.115247 13.94384 42.058931 13.80943 42.058931 13.65343 C 42.058931 13.49743 42.115247 13.363537 42.227913 13.250871 C 42.34058 13.129538 42.474473 13.068453 42.630473 13.068453 L 42.695585 13.068453 L 42.695585 8.6356486 L 42.630473 8.6356486 C 42.474473 8.6356486 42.34058 8.5793332 42.227913 8.4666667 C 42.115247 8.3540001 42.058931 8.2195903 42.058931 8.0635905 C 42.058931 7.9075907 42.115247 7.7731809 42.227913 7.6605143 C 42.34058 7.5478478 42.474473 7.4915324 42.630473 7.4915324 L 43.228886 7.4915324 C 43.367552 7.4915324 43.484436 7.5435953 43.579769 7.6475952 C 43.683769 7.7429285 43.735832 7.8640641 43.735832 8.0113973 L 43.735832 8.4537476 C 44.229831 7.7170816 44.940152 7.3489054 45.867485 7.3489054 z M 53.329561 7.3489054 C 53.719561 7.3489054 54.088254 7.4222306 54.43492 7.5695638 C 54.781587 7.716897 55.037132 7.9033697 55.201799 8.1287028 C 55.366465 8.3627026 55.487601 8.6485319 55.565601 8.9865316 C 55.582934 9.0905315 55.596208 9.2334461 55.604875 9.415446 C 55.613541 9.5974458 55.617794 9.8232241 55.617794 10.09189 L 55.617794 13.068453 L 55.695825 13.068453 C 55.851825 13.068453 55.981466 13.129538 56.085465 13.250871 C 56.198132 13.363537 56.254964 13.49743 56.254964 13.65343 C 56.254964 13.80943 56.198132 13.94384 56.085465 14.056506 C 55.981466 14.160506 55.851825 14.212569 55.695825 14.212569 L 55.045736 14.212569 C 54.889736 14.212569 54.755326 14.160506 54.64266 14.056506 C 54.529993 13.94384 54.473678 13.805178 54.473678 13.640511 L 54.473678 10.130648 C 54.473678 9.6626483 54.430636 9.3157343 54.34397 9.0904012 C 54.257303 8.8737348 54.101114 8.6877788 53.875781 8.531779 C 53.650448 8.4017791 53.385881 8.3364421 53.082548 8.3364421 C 52.588549 8.3364421 52.172562 8.4926308 51.834562 8.8046305 C 51.487896 9.0992969 51.314697 9.6799773 51.314697 10.546643 L 51.314697 13.640511 C 51.314697 13.805178 51.258382 13.94384 51.145715 14.056506 C 51.033049 14.160506 50.898639 14.212569 50.742639 14.212569 L 50.09255 14.212569 C 49.93655 14.212569 49.80214 14.160506 49.689473 14.056506 C 49.576807 13.94384 49.520492 13.80943 49.520492 13.65343 C 49.520492 13.49743 49.576807 13.363537 49.689473 13.250871 C 49.80214 13.129538 49.93655 13.068453 50.09255 13.068453 L 50.157662 13.068453 L 50.157662 8.6356486 L 50.09255 8.6356486 C 49.93655 8.6356486 49.80214 8.5793332 49.689473 8.4666667 C 49.576807 8.3540001 49.520492 8.2195903 49.520492 8.0635905 C 49.520492 7.9075907 49.576807 7.7731809 49.689473 7.6605143 C 49.80214 7.5478478 49.93655 7.4915324 50.09255 7.4915324 L 50.690963 7.4915324 C 50.829629 7.4915324 50.946512 7.5435953 51.041846 7.6475952 C 51.145846 7.7429285 51.197909 7.8640641 51.197909 8.0113973 L 51.197909 8.4537476 C 51.691908 7.7170816 52.402229 7.3489054 53.329561 7.3489054 z M 70.814799 7.3489054 C 71.716131 7.3489054 72.448231 7.6565138 73.011564 8.2718465 C 73.59223 8.8611793 73.882829 9.7234365 73.882829 10.858769 C 73.882829 10.945435 73.852545 11.014508 73.791878 11.066508 C 73.731212 11.118508 73.661622 11.144539 73.583622 11.144539 L 68.851611 11.144539 C 68.894945 11.907205 69.103196 12.470876 69.475863 12.834875 C 69.848529 13.242208 70.320831 13.445691 70.89283 13.445691 C 71.300163 13.445691 71.650813 13.337313 71.945479 13.120646 C 72.040813 13.03398 72.136434 12.934106 72.231767 12.82144 C 72.335767 12.708773 72.422366 12.579133 72.491699 12.431799 C 72.552366 12.327799 72.634713 12.245453 72.738713 12.184786 C 72.851379 12.124119 72.96401 12.10234 73.076676 12.119674 C 73.180676 12.137007 73.271528 12.175796 73.349528 12.236462 C 73.427528 12.288462 73.488613 12.353799 73.531946 12.431799 C 73.575279 12.509799 73.596541 12.596399 73.596541 12.691732 C 73.605208 12.787065 73.588198 12.877917 73.544865 12.964583 C 73.440865 13.137916 73.328234 13.294105 73.206901 13.432772 C 73.085568 13.571438 72.946906 13.692574 72.790906 13.796574 C 72.539573 14.004574 72.253227 14.151741 71.93256 14.238407 C 71.620561 14.333741 71.269911 14.381551 70.879911 14.381551 C 69.891912 14.381551 69.107233 14.078195 68.526567 13.471529 C 67.954567 12.87353 67.668738 12.024547 67.668738 10.923881 C 67.668738 10.343215 67.737811 9.8401122 67.876477 9.415446 C 68.015144 8.9821131 68.236153 8.605432 68.539486 8.2847656 C 69.111485 7.6607662 69.870133 7.3489054 70.814799 7.3489054 z M 89.235897 7.3618245 C 89.82523 7.3618245 90.28851 7.4308973 90.62651 7.5695638 C 90.973176 7.690897 91.241995 7.8555907 91.432662 8.0635905 C 91.519329 8.1675904 91.588918 8.2844736 91.640918 8.4144735 C 91.692918 8.5444733 91.740212 8.6831356 91.783545 8.8304687 C 91.800878 8.9344686 91.814152 9.0731309 91.822819 9.246464 C 91.831486 9.4197972 91.835738 9.6323014 91.835738 9.8836344 L 91.835738 11.404472 C 91.835738 12.149804 91.848495 12.704453 91.874495 13.068453 L 91.926689 13.068453 C 92.082688 13.068453 92.212846 13.124768 92.316846 13.237435 C 92.429512 13.350101 92.485828 13.484511 92.485828 13.640511 C 92.485828 13.796511 92.429512 13.930921 92.316846 14.043587 C 92.212846 14.147587 92.082688 14.19965 91.926689 14.19965 L 91.36755 14.19965 C 91.246216 14.19965 91.137838 14.169366 91.042505 14.1087 C 90.955838 14.039366 90.89527 13.943745 90.860604 13.822412 C 90.843271 13.779079 90.830513 13.731785 90.821847 13.679785 C 90.81318 13.636452 90.804158 13.588641 90.795492 13.536641 C 90.786825 13.484641 90.782572 13.432579 90.782572 13.380579 C 90.34924 13.735912 89.946527 13.987205 89.573861 14.134538 C 89.157861 14.281871 88.737105 14.355713 88.312439 14.355713 C 87.575773 14.355713 87.012619 14.173493 86.62262 13.809493 C 86.23262 13.462827 86.037642 13.003799 86.037642 12.431799 C 86.037642 12.085133 86.111484 11.790282 86.258818 11.547616 C 86.406151 11.261616 86.596876 11.040607 86.830876 10.884607 C 86.952209 10.79794 87.081849 10.724098 87.220516 10.663432 C 87.367849 10.602765 87.515533 10.551219 87.662866 10.507886 C 87.775533 10.481886 87.914195 10.455854 88.078861 10.429854 C 88.243528 10.403854 88.438506 10.37357 88.663839 10.338904 C 89.131838 10.286904 89.530298 10.230072 89.859631 10.169405 C 90.188964 10.100072 90.462036 10.030999 90.678703 9.9616659 C 90.687369 9.8836659 90.691622 9.8188457 90.691622 9.7668457 L 90.691622 9.6624593 C 90.691622 9.1944598 90.583244 8.8650724 90.366577 8.6744059 C 90.071911 8.4230728 89.643167 8.2976847 89.079834 8.2976847 C 88.551168 8.2976847 88.156443 8.3885365 87.896444 8.5705363 C 87.731777 8.7005362 87.588863 8.9045354 87.467529 9.1818685 C 87.424196 9.3032017 87.346102 9.3940534 87.233435 9.4547201 C 87.120769 9.50672 86.999633 9.5237298 86.869633 9.5063965 C 86.687633 9.4890632 86.548971 9.4024639 86.453638 9.246464 C 86.366971 9.0817975 86.362719 8.9128514 86.440719 8.7395182 C 86.518719 8.5488518 86.613823 8.3931797 86.726489 8.2718465 C 86.839156 8.1245133 86.977818 7.994356 87.142485 7.8816895 C 87.315818 7.7690229 87.510795 7.6734019 87.727462 7.595402 C 88.152128 7.4394022 88.655231 7.3618245 89.235897 7.3618245 z M 78.003507 7.4005819 C 78.124841 7.4005819 78.242241 7.4090868 78.354907 7.4264201 C 78.47624 7.4350867 78.593124 7.4611182 78.70579 7.5044515 C 78.844457 7.5477848 78.943813 7.6349008 79.00448 7.7649007 C 79.065147 7.8862339 79.069916 8.011622 79.017916 8.1416219 C 78.974583 8.2456218 78.900741 8.3279686 78.796741 8.3886353 C 78.701407 8.4493019 78.597282 8.4710809 78.484615 8.4537476 C 78.389282 8.4364142 78.302683 8.4273926 78.224683 8.4273926 C 78.146683 8.4273926 78.064336 8.4364142 77.977669 8.4537476 C 77.882336 8.4710809 77.77821 8.5013648 77.665544 8.5446981 C 77.561544 8.5793647 77.46644 8.622406 77.379773 8.6744059 C 77.137107 8.8217391 76.963908 9.0560223 76.859908 9.3766886 C 76.729908 9.7840216 76.664571 10.22604 76.664571 10.702706 L 76.664571 13.666866 C 76.664571 13.822866 76.608256 13.956759 76.495589 14.069425 C 76.391589 14.182092 76.261949 14.238407 76.105949 14.238407 C 75.941282 14.238407 75.80262 14.182092 75.689954 14.069425 C 75.577287 13.956759 75.520455 13.822866 75.520455 13.666866 L 75.520455 8.6227295 L 75.377828 8.6227295 C 75.230495 8.6227295 75.100337 8.5664141 74.987671 8.4537476 C 74.875004 8.341081 74.818689 8.2109237 74.818689 8.0635905 C 74.818689 7.9075907 74.875004 7.7731809 74.987671 7.6605143 C 75.100337 7.5478478 75.230495 7.4915324 75.377828 7.4915324 L 75.988643 7.4915324 C 76.005977 7.4915324 76.023503 7.4957848 76.040837 7.5044515 L 76.118868 7.5044515 C 76.240201 7.5217848 76.339558 7.5828694 76.417558 7.6868693 C 76.504224 7.7822025 76.547782 7.8900641 76.547782 8.0113973 L 76.547782 8.5188599 C 76.686449 8.2761934 76.79908 8.0939732 76.885746 7.97264 C 76.981079 7.8426401 77.085205 7.7427667 77.197872 7.6734334 C 77.319205 7.5954335 77.448846 7.5306132 77.587512 7.4786133 C 77.734845 7.4266133 77.873508 7.4005819 78.003507 7.4005819 z M 96.463879 7.4005819 C 96.585213 7.4005819 96.702096 7.4090868 96.814762 7.4264201 C 96.936096 7.4350867 97.052979 7.4611182 97.165645 7.5044515 C 97.304312 7.5477848 97.404185 7.6349008 97.464852 7.7649007 C 97.525518 7.8862339 97.529771 8.011622 97.477771 8.1416219 C 97.434438 8.2456218 97.360596 8.3279686 97.256596 8.3886353 C 97.161263 8.4493019 97.057137 8.4710809 96.94447 8.4537476 C 96.849137 8.4364142 96.762538 8.4273926 96.684538 8.4273926 C 96.606538 8.4273926 96.524191 8.4364142 96.437524 8.4537476 C 96.342191 8.4710809 96.238582 8.5013648 96.125916 8.5446981 C 96.021916 8.5793647 95.926295 8.622406 95.839628 8.6744059 C 95.596962 8.8217391 95.423763 9.0560223 95.319763 9.3766886 C 95.189763 9.7840216 95.124426 10.22604 95.124426 10.702706 L 95.124426 13.666866 C 95.124426 13.822866 95.068111 13.956759 94.955444 14.069425 C 94.851444 14.182092 94.721804 14.238407 94.565804 14.238407 C 94.401138 14.238407 94.262475 14.182092 94.149809 14.069425 C 94.037142 13.956759 93.980827 13.822866 93.980827 13.666866 L 93.980827 8.6227295 L 93.837683 8.6227295 C 93.69035 8.6227295 93.560193 8.5664141 93.447526 8.4537476 C 93.334859 8.341081 93.278544 8.2109237 93.278544 8.0635905 C 93.278544 7.9075907 93.334859 7.7731809 93.447526 7.6605143 C 93.560193 7.5478478 93.69035 7.4915324 93.837683 7.4915324 L 94.448499 7.4915324 C 94.465832 7.4915324 94.483358 7.4957848 94.500692 7.5044515 L 94.578723 7.5044515 C 94.700056 7.5217848 94.79993 7.5828694 94.87793 7.6868693 C 94.964596 7.7822025 95.007638 7.8900641 95.007638 8.0113973 L 95.007638 8.5188599 C 95.146304 8.2761934 95.258935 8.0939732 95.345601 7.97264 C 95.440935 7.8426401 95.54506 7.7427667 95.657727 7.6734334 C 95.77906 7.5954335 95.909218 7.5306132 96.047884 7.4786133 C 96.195217 7.4266133 96.33388 7.4005819 96.463879 7.4005819 z M 57.567546 7.4786133 L 58.191797 7.4786133 C 58.356463 7.4786133 58.495126 7.5349287 58.607792 7.6475952 C 58.720459 7.7602618 58.776774 7.8946715 58.776774 8.0506714 L 58.776774 13.068453 L 58.841886 13.068453 C 58.997886 13.068453 59.132296 13.124768 59.244963 13.237435 C 59.357629 13.350101 59.413944 13.488764 59.413944 13.65343 C 59.413944 13.800763 59.357629 13.930921 59.244963 14.043587 C 59.132296 14.156254 58.997886 14.212569 58.841886 14.212569 L 58.191797 14.212569 C 58.044464 14.212569 57.914306 14.156254 57.80164 14.043587 C 57.688973 13.930921 57.632658 13.800763 57.632658 13.65343 L 57.632658 13.640511 L 57.632658 8.6227295 L 57.567546 8.6227295 C 57.411546 8.6227295 57.277136 8.5664141 57.164469 8.4537476 C 57.051803 8.341081 56.995487 8.2066712 56.995487 8.0506714 C 56.995487 7.8946715 57.051803 7.7602618 57.164469 7.6475952 C 57.277136 7.5349287 57.411546 7.4786133 57.567546 7.4786133 z M 98.322681 7.4786133 L 98.855465 7.4786133 L 98.907658 7.4786133 C 99.020324 7.4872799 99.120198 7.5218163 99.206864 7.5824829 C 99.293531 7.6431495 99.358351 7.7254964 99.401685 7.8294963 L 100.67551 11.404472 C 100.77084 11.655805 100.85744 11.911867 100.93544 12.171867 C 101.02211 12.431867 101.1002 12.700169 101.16954 12.977502 C 101.23887 12.717503 101.31271 12.457705 101.39071 12.197705 C 101.46871 11.937705 101.55531 11.68216 101.65064 11.430827 L 102.96374 7.8294963 C 103.00707 7.7254964 103.07189 7.6431495 103.15856 7.5824829 C 103.25389 7.5131496 103.35802 7.4786133 103.47069 7.4786133 L 103.48361 7.4786133 L 103.49653 7.4786133 L 104.00347 7.4786133 C 104.15947 7.4786133 104.29388 7.5349287 104.40655 7.6475952 C 104.51921 7.7602618 104.57553 7.8946715 104.57553 8.0506714 C 104.57553 8.2066712 104.51921 8.341081 104.40655 8.4537476 C 104.29388 8.5664141 104.15947 8.6227295 104.00347 8.6227295 L 103.82157 8.6227295 L 101.66356 14.381551 C 101.3949 15.10955 101.17814 15.62541 101.01347 15.928743 C 100.82281 16.30141 100.58904 16.578734 100.31171 16.760734 C 100.04304 16.934067 99.731179 17.020667 99.375846 17.020667 C 99.26318 17.020667 99.141527 17.007392 99.011528 16.981392 C 98.890194 16.964059 98.790838 16.912513 98.712838 16.825846 C 98.643504 16.73918 98.599946 16.635054 98.582613 16.513721 C 98.56528 16.349054 98.61309 16.20614 98.725757 16.084806 C 98.838423 15.963473 98.977086 15.902905 99.141752 15.902905 L 99.154671 15.902905 C 99.423338 15.902905 99.631589 15.859347 99.778923 15.772681 C 99.926256 15.694681 100.05164 15.577798 100.15564 15.421798 C 100.21631 15.309131 100.33319 15.022785 100.50653 14.563452 C 100.51519 14.528786 100.52847 14.489997 100.5458 14.446663 C 100.56313 14.40333 100.58014 14.347015 100.59748 14.277681 L 98.465824 8.6227295 L 98.322681 8.6227295 C 98.166681 8.6227295 98.032271 8.5664141 97.919604 8.4537476 C 97.806938 8.341081 97.750623 8.2066712 97.750623 8.0506714 C 97.750623 7.8946715 97.806938 7.7602618 97.919604 7.6475952 C 98.032271 7.5349287 98.166681 7.4786133 98.322681 7.4786133 z M 60.726526 7.4915324 L 61.194714 7.4915324 C 61.212048 7.4915324 61.224805 7.4957848 61.233472 7.5044515 L 61.272746 7.5044515 C 61.290079 7.5131182 61.307606 7.5178874 61.324939 7.5178874 C 61.342272 7.5178874 61.359282 7.5221398 61.376615 7.5308065 C 61.402615 7.5394731 61.420142 7.5437256 61.428809 7.5437256 C 61.550142 7.5957255 61.649498 7.6950822 61.727498 7.8424154 L 61.727498 7.8558512 L 61.740934 7.8687703 L 63.040597 11.521777 C 63.18793 11.937777 63.330844 12.3883 63.469511 12.873633 C 63.521511 12.7003 63.582595 12.509574 63.651929 12.301575 C 63.721262 12.084908 63.79884 11.851142 63.885506 11.599809 L 65.250798 7.8687703 C 65.294131 7.7561038 65.358951 7.6647353 65.445618 7.595402 C 65.540951 7.5260688 65.649329 7.4915324 65.770662 7.4915324 L 66.25177 7.4915324 C 66.40777 7.4915324 66.54218 7.5478478 66.654846 7.6605143 C 66.767513 7.7731809 66.823828 7.9075907 66.823828 8.0635905 C 66.823828 8.2195903 66.767513 8.3540001 66.654846 8.4666667 C 66.54218 8.5706666 66.40777 8.6227295 66.25177 8.6227295 L 66.121545 8.6227295 L 64.197632 13.718542 C 64.136965 13.865876 64.041861 13.987528 63.911861 14.082861 C 63.790528 14.169528 63.647613 14.212569 63.482947 14.212569 C 63.31828 14.212569 63.170596 14.169528 63.040597 14.082861 C 62.910597 13.987528 62.819745 13.865876 62.767745 13.718542 L 60.830912 8.6227295 L 60.726526 8.6227295 C 60.570526 8.6227295 60.436633 8.5706666 60.323966 8.4666667 C 60.2113 8.3540001 60.154468 8.2195903 60.154468 8.0635905 C 60.154468 7.9075907 60.2113 7.7731809 60.323966 7.6605143 C 60.436633 7.5478478 60.570526 7.4915324 60.726526 7.4915324 z M 70.814799 8.2847656 C 70.2948 8.2847656 69.857034 8.4579642 69.501701 8.8046305 C 69.137701 9.1426302 68.942724 9.6191847 68.916724 10.234517 L 72.6736 10.234517 C 72.6476 9.939851 72.595537 9.6885581 72.517537 9.4805583 C 72.448204 9.2725585 72.3531 9.0951074 72.231767 8.9477743 C 71.893767 8.5057747 71.421465 8.2847656 70.814799 8.2847656 z M 90.678703 10.832414 C 90.47937 10.91908 90.223824 11.001427 89.911825 11.079427 C 89.608492 11.14876 89.24882 11.214097 88.832821 11.274764 C 88.598821 11.309431 88.399591 11.343967 88.234924 11.378634 C 88.070258 11.4133 87.9401 11.452089 87.844767 11.495422 C 87.645434 11.590756 87.498267 11.71666 87.402934 11.87266 C 87.298934 12.02866 87.246871 12.206111 87.246871 12.405444 C 87.246871 12.700111 87.359502 12.951404 87.584835 13.159403 C 87.818835 13.367403 88.152474 13.471529 88.585807 13.471529 C 89.01914 13.471529 89.409095 13.372172 89.755762 13.172839 C 90.093761 12.982173 90.340802 12.721858 90.496802 12.392525 C 90.618135 12.149859 90.678703 11.773178 90.678703 11.261845 L 90.678703 10.832414 z " />
</svg>
