<?xml version="1.0" encoding="UTF-8" standalone="no"?>
<svg
   width="120mm"
   height="20mm"
   viewBox="0 0 120 20"
   version="1.1"
   id="svg8"
   xmlns="http://www.w3.org/2000/svg"
   xmlns:svg="http://www.w3.org/2000/svg"
   xmlns:rdf="http://www.w3.org/1999/02/22-rdf-syntax-ns#"
   xmlns:cc="http://creativecommons.org/ns#"
   xmlns:dc="http://purl.org/dc/elements/1.1/">
  <defs
     id="defs2" />
  <metadata
     id="metadata5">
    <rdf:RDF>
      <cc:Work
         rdf:about="">
        <dc:format>image/svg+xml</dc:format>
        <dc:type
           rdf:resource="http://purl.org/dc/dcmitype/StillImage" />
      </cc:Work>
    </rdf:RDF>
  </metadata>
  <path
     id="path835"
     style="fill:#000000;fill-opacity:1;stroke:none;stroke-width:0.265;stroke-linecap:butt;stroke-linejoin:miter;stroke-miterlimit:4;stroke-dasharray:none;stroke-opacity:1"
     d="M 9.9999064 0 L 0 9.9999064 L 9.9999064 19.999813 L 110 19.999813 L 119.99991 9.9999064 L 110 0 L 9.9999064 0 z M 28.370361 3.3124593 L 28.491284 3.3124593 L 28.491284 4.4880981 L 29.326892 4.4880981 L 29.326892 4.7614665 L 28.491284 4.7614665 L 28.491284 7.0817383 C 28.491284 7.3135089 28.523849 7.4697144 28.588953 7.5504435 C 28.656661 7.6311726 28.742651 7.6718831 28.846818 7.6718831 C 28.932755 7.6718831 29.016203 7.6454182 29.096932 7.593335 C 29.177661 7.5386475 29.23973 7.4592732 29.284001 7.3551066 L 29.436446 7.3551066 C 29.3453 7.6103147 29.216573 7.8031577 29.049906 7.9333659 C 28.88324 8.0609699 28.711259 8.1245687 28.534176 8.1245687 C 28.414384 8.1245687 28.297359 8.0920043 28.182776 8.0269002 C 28.068193 7.959192 27.983215 7.8645588 27.928528 7.7421631 C 27.87384 7.6171632 27.846879 7.4253334 27.846879 7.1675212 L 27.846879 4.7614665 L 27.280505 4.7614665 L 27.280505 4.6327922 C 27.423734 4.5755005 27.569251 4.4788207 27.717688 4.3434041 C 27.86873 4.2053834 28.00306 4.0425617 28.120247 3.8550618 C 28.180143 3.7561036 28.263591 3.5754799 28.370361 3.3124593 z M 58.293083 3.9454956 C 58.484489 3.9454956 58.646163 4.0139324 58.778324 4.150651 C 58.915043 4.2828124 58.98348 4.4444867 58.98348 4.6358927 C 58.98348 4.8272988 58.915043 4.9916505 58.778324 5.1283691 C 58.646163 5.2650878 58.484489 5.3330078 58.293083 5.3330078 C 58.101677 5.3330078 57.937325 5.2650878 57.800606 5.1283691 C 57.663888 4.9916505 57.595451 4.8272988 57.595451 4.6358927 C 57.595451 4.4444867 57.661727 4.2828124 57.793888 4.150651 C 57.930607 4.0139324 58.097119 3.9454956 58.293083 3.9454956 z M 37.046834 4.1847575 L 37.286096 4.1847575 L 40.512773 11.895915 C 40.772538 12.515706 41.00697 12.918811 41.216606 13.10566 C 41.430798 13.287951 41.727185 13.390348 42.10544 13.413135 L 42.10544 13.666349 L 38.448299 13.666349 L 38.448299 13.413135 C 38.817439 13.394906 39.065869 13.333468 39.193473 13.22865 C 39.325635 13.123832 39.391394 12.996118 39.391394 12.845728 C 39.391394 12.645207 39.300317 12.328857 39.118026 11.895915 L 38.557853 10.562663 L 34.968925 10.562663 L 34.340023 12.025623 C 34.185075 12.385648 34.107479 12.654557 34.107479 12.832292 C 34.107479 12.973568 34.173755 13.098604 34.305916 13.207979 C 34.442635 13.312797 34.734184 13.381234 35.180798 13.413135 L 35.180798 13.666349 L 32.261597 13.666349 L 32.261597 13.413135 C 32.648966 13.344775 32.899557 13.255859 33.013489 13.146484 C 33.24591 12.927735 33.5035 12.48367 33.786051 11.813749 L 37.046834 4.1847575 z M 20.985282 4.2054281 L 21.211108 4.2054281 L 21.211108 12.03234 C 21.211108 12.551871 21.231588 12.875737 21.272603 13.003341 C 21.318176 13.130945 21.409253 13.228503 21.545972 13.296863 C 21.68269 13.365222 21.960759 13.40402 22.380029 13.413135 L 22.380029 13.666349 L 18.89342 13.666349 L 18.89342 13.413135 C 19.33092 13.40402 19.613827 13.3679 19.741431 13.304097 C 19.869035 13.235738 19.957434 13.146822 20.007564 13.037447 C 20.057694 12.923515 20.083012 12.58833 20.083012 12.03234 L 20.083012 7.0285116 C 20.083012 6.3540331 20.060372 5.9212889 20.014799 5.7298828 C 19.982898 5.5840496 19.923621 5.4768147 19.837032 5.4084554 C 19.755001 5.3400961 19.654765 5.3056193 19.536275 5.3056193 C 19.367656 5.3056193 19.132706 5.3767335 18.831925 5.5180094 L 18.729606 5.3056193 L 20.985282 4.2054281 z M 25.565365 4.3826782 C 25.705989 4.3826782 25.876441 4.4126994 26.076961 4.4725952 C 26.209774 4.5116577 26.298307 4.5309896 26.342578 4.5309896 C 26.384245 4.5309896 26.416809 4.5218302 26.440247 4.5036011 C 26.463684 4.4853719 26.491162 4.4451782 26.522412 4.3826782 L 26.651603 4.3826782 L 26.651603 5.6012085 L 26.522412 5.6012085 C 26.423454 5.2183964 26.29574 4.9578815 26.13949 4.8198608 C 25.985844 4.6818401 25.789445 4.6131551 25.549862 4.6131551 C 25.36757 4.6131551 25.220524 4.6614951 25.108545 4.7578491 C 24.996566 4.8542032 24.940597 4.9605389 24.940597 5.0777262 C 24.940597 5.2235594 24.98232 5.3487306 25.065653 5.4528971 C 25.146383 5.5596679 25.310218 5.6731365 25.557613 5.7929281 L 26.128121 6.0699137 C 26.656766 6.327726 26.920837 6.6676152 26.920837 7.0894897 C 26.920837 7.4150103 26.797196 7.6780682 26.549801 7.8785889 C 26.305009 8.0765053 26.030249 8.1757284 25.725562 8.1757284 C 25.506812 8.1757284 25.256986 8.1365478 24.975736 8.0584229 C 24.889799 8.0323812 24.819584 8.0191488 24.764897 8.0191488 C 24.705001 8.0191488 24.657674 8.0532431 24.62382 8.1209513 L 24.495146 8.1209513 L 24.495146 6.8435099 L 24.62382 6.8435099 C 24.696737 7.2080929 24.836153 7.4828534 25.041882 7.667749 C 25.247611 7.8526447 25.478105 7.9452515 25.733313 7.9452515 C 25.913 7.9452515 26.059033 7.8928384 26.171012 7.7886719 C 26.285596 7.6819011 26.342578 7.5547036 26.342578 7.4062663 C 26.342578 7.226579 26.278979 7.0754597 26.151375 6.953064 C 26.026375 6.8306683 25.77502 6.6754759 25.397416 6.4879761 C 25.019812 6.3004763 24.77253 6.131555 24.655343 5.9805135 C 24.538155 5.8320762 24.479643 5.6443194 24.479643 5.4177572 C 24.479643 5.1234866 24.579879 4.8772174 24.7804 4.6793009 C 24.983524 4.4813845 25.245052 4.3826782 25.565365 4.3826782 z M 36.794137 6.3107259 L 35.180798 10.05675 L 38.366134 10.05675 L 36.794137 6.3107259 z M 70.563652 7.2129964 C 71.265474 7.2129964 71.841574 7.4452682 72.292745 7.9101115 C 72.743916 8.3703975 72.969706 8.9879728 72.969706 9.7627116 L 68.642322 9.7627116 C 68.637764 10.692398 68.863554 11.42153 69.319283 11.950175 C 69.775012 12.47882 70.31067 12.743408 70.925903 12.743408 C 71.336059 12.743408 71.691207 12.631852 71.991988 12.408545 C 72.297326 12.180681 72.552755 11.793216 72.757833 11.246342 L 72.969706 11.382768 C 72.874003 12.007116 72.595935 12.577251 72.135649 13.092224 C 71.675363 13.60264 71.098746 13.857552 70.406038 13.857552 C 69.654086 13.857552 69.009549 13.566003 68.47179 12.98267 C 67.938587 12.39478 67.671838 11.606371 67.671838 10.61744 C 67.671838 9.5464773 67.945069 8.7122715 68.491943 8.1152669 C 69.043375 7.513705 69.734225 7.2129964 70.563652 7.2129964 z M 44.231409 7.2197144 L 44.525448 7.2197144 L 44.525448 8.5462484 C 45.259171 7.6621347 45.958664 7.2197144 46.624028 7.2197144 C 46.965824 7.2197144 47.259534 7.3064699 47.505627 7.4796468 C 47.751721 7.6482664 47.947872 7.9284957 48.093705 8.3204224 C 48.193966 8.5938596 48.244084 9.0131231 48.244084 9.5782267 L 48.244084 12.250932 C 48.244084 12.647416 48.275883 12.916325 48.339685 13.057601 C 48.389815 13.171533 48.469572 13.260449 48.578947 13.324251 C 48.692879 13.388053 48.90035 13.420369 49.201131 13.420369 L 49.201131 13.666349 L 46.104679 13.666349 L 46.104679 13.420369 L 46.234387 13.420369 C 46.526054 13.420369 46.728687 13.376733 46.842619 13.290145 C 46.961108 13.198999 47.043543 13.066964 47.089115 12.893787 C 47.107345 12.825427 47.115987 12.610957 47.115987 12.250932 L 47.115987 9.6877808 C 47.115987 9.1181199 47.041068 8.7058551 46.890678 8.450647 C 46.744845 8.1908816 46.496415 8.0604899 46.145504 8.0604899 C 45.603187 8.0604899 45.063207 8.3568772 44.525448 8.9493245 L 44.525448 12.250932 C 44.525448 12.67476 44.550248 12.937187 44.600378 13.037447 C 44.66418 13.169608 44.750936 13.267684 44.860311 13.331486 C 44.974243 13.390731 45.202194 13.420369 45.54399 13.420369 L 45.54399 13.666349 L 42.447021 13.666349 L 42.447021 13.420369 L 42.583964 13.420369 C 42.902974 13.420369 43.117444 13.340613 43.226819 13.181108 C 43.340751 13.017045 43.397351 12.706661 43.397351 12.250932 L 43.397351 9.9270426 C 43.397351 9.1750903 43.379032 8.7170286 43.342574 8.5529663 C 43.310673 8.388904 43.258394 8.2773478 43.185478 8.218103 C 43.117118 8.1588583 43.023881 8.1292196 42.905391 8.1292196 C 42.777787 8.1292196 42.624756 8.1631796 42.447021 8.2315389 L 42.344702 7.9855591 L 44.231409 7.2197144 z M 51.231498 7.2197144 L 51.525537 7.2197144 L 51.525537 8.5462484 C 52.25926 7.6621347 52.958753 7.2197144 53.624117 7.2197144 C 53.965914 7.2197144 54.259623 7.3064699 54.505717 7.4796468 C 54.75181 7.6482664 54.947962 7.9284957 55.093795 8.3204224 C 55.194055 8.5938596 55.244173 9.0131231 55.244173 9.5782267 L 55.244173 12.250932 C 55.244173 12.647416 55.275973 12.916325 55.339775 13.057601 C 55.389905 13.171533 55.469662 13.260449 55.579036 13.324251 C 55.692969 13.388053 55.90044 13.420369 56.201221 13.420369 L 56.201221 13.666349 L 53.104252 13.666349 L 53.104252 13.420369 L 53.234477 13.420369 C 53.526143 13.420369 53.728776 13.376733 53.842708 13.290145 C 53.961198 13.198999 54.043115 13.066964 54.088688 12.893787 C 54.106917 12.825427 54.116077 12.610957 54.116077 12.250932 L 54.116077 9.6877808 C 54.116077 9.1181199 54.041158 8.7058551 53.890767 8.450647 C 53.744934 8.1908816 53.496504 8.0604899 53.145593 8.0604899 C 52.603276 8.0604899 52.063297 8.3568772 51.525537 8.9493245 L 51.525537 12.250932 C 51.525537 12.67476 51.550338 12.937187 51.600468 13.037447 C 51.66427 13.169608 51.751025 13.267684 51.8604 13.331486 C 51.974333 13.390731 52.202283 13.420369 52.54408 13.420369 L 52.54408 13.666349 L 49.447111 13.666349 L 49.447111 13.420369 L 49.584054 13.420369 C 49.903064 13.420369 50.117017 13.340613 50.226392 13.181108 C 50.340324 13.017045 50.397441 12.706661 50.397441 12.250932 L 50.397441 9.9270426 C 50.397441 9.1750903 50.379122 8.7170286 50.342664 8.5529663 C 50.310763 8.388904 50.258484 8.2773478 50.185567 8.218103 C 50.117208 8.1588583 50.02397 8.1292196 49.905481 8.1292196 C 49.777877 8.1292196 49.624845 8.1631796 49.447111 8.2315389 L 49.344792 7.9855591 L 51.231498 7.2197144 z M 58.559733 7.2197144 L 58.86049 7.2197144 L 58.86049 12.250932 C 58.86049 12.642858 58.887451 12.905286 58.942139 13.037447 C 59.001383 13.165051 59.085978 13.260449 59.195353 13.324251 C 59.309285 13.388053 59.514079 13.420369 59.810303 13.420369 L 59.810303 13.666349 L 56.768628 13.666349 L 56.768628 13.420369 C 57.073966 13.420369 57.27876 13.390731 57.383577 13.331486 C 57.488395 13.272241 57.570829 13.174166 57.630074 13.037447 C 57.693876 12.900728 57.725675 12.638301 57.725675 12.250932 L 57.725675 9.8381592 C 57.725675 9.1591234 57.705196 8.7193805 57.664181 8.5188599 C 57.632279 8.3730267 57.582161 8.2727905 57.513802 8.218103 C 57.445443 8.1588583 57.351689 8.1292196 57.233199 8.1292196 C 57.105595 8.1292196 56.950919 8.1631796 56.768628 8.2315389 L 56.673027 7.9855591 L 58.559733 7.2197144 z M 75.348889 7.2197144 L 75.635693 7.2197144 L 75.635693 8.6278971 C 76.159781 7.689096 76.6976 7.2197144 77.249032 7.2197144 C 77.499682 7.2197144 77.707153 7.2973105 77.871216 7.4522583 C 78.035278 7.6026488 78.117196 7.7783205 78.117196 7.9788411 C 78.117196 8.1565753 78.057918 8.3069296 77.939429 8.4299764 C 77.820939 8.5530232 77.679744 8.6144613 77.515682 8.6144613 C 77.356177 8.6144613 77.176184 8.5368651 76.975663 8.3819173 C 76.7797 8.2224123 76.633667 8.1426554 76.537964 8.1426554 C 76.455933 8.1426554 76.367017 8.1884522 76.271313 8.279598 C 76.066236 8.4664468 75.854443 8.7741541 75.635693 9.2025391 L 75.635693 12.203389 C 75.635693 12.549743 75.678813 12.811654 75.765401 12.989388 C 75.824646 13.112435 75.92972 13.214832 76.080111 13.296863 C 76.230501 13.378894 76.447132 13.420369 76.729683 13.420369 L 76.729683 13.666349 L 73.523678 13.666349 L 73.523678 13.420369 C 73.842688 13.420369 74.079281 13.369735 74.234229 13.269474 C 74.348161 13.196558 74.427918 13.08068 74.47349 12.921175 C 74.496277 12.843701 74.507597 12.622749 74.507597 12.258167 L 74.507597 9.8314412 C 74.507597 9.1022753 74.491956 8.6690143 74.460055 8.5322957 C 74.432711 8.3910198 74.377755 8.288623 74.295723 8.224821 C 74.21825 8.1610189 74.120691 8.1292196 74.002201 8.1292196 C 73.860925 8.1292196 73.701412 8.1631796 73.523678 8.2315389 L 73.454948 7.9855591 L 75.348889 7.2197144 z M 80.612134 7.2197144 C 80.858227 7.2197144 81.156775 7.2725099 81.507686 7.3773275 C 81.740108 7.4456868 81.8953 7.4796468 81.972774 7.4796468 C 82.045691 7.4796468 82.102291 7.4634887 82.143306 7.4315877 C 82.184322 7.3996867 82.23228 7.3290892 82.286967 7.2197144 L 82.512793 7.2197144 L 82.512793 9.3529175 L 82.286967 9.3529175 C 82.11379 8.6829963 81.890678 8.2270953 81.61724 7.9855591 C 81.34836 7.7440229 81.004016 7.6233073 80.584745 7.6233073 C 80.265735 7.6233073 80.008663 7.7073854 79.812699 7.876005 C 79.616736 8.0446247 79.51866 8.2316164 79.51866 8.4366943 C 79.51866 8.6919024 79.591419 8.9106935 79.737252 9.092985 C 79.878528 9.2798338 80.165756 9.4781456 80.598698 9.6877808 L 81.59657 10.173022 C 82.521699 10.624194 82.984599 11.219129 82.984599 11.95741 C 82.984599 12.527071 82.767968 12.987293 82.335026 13.338204 C 81.906641 13.684558 81.425939 13.857552 80.892737 13.857552 C 80.509925 13.857552 80.072342 13.789115 79.580155 13.652397 C 79.429765 13.606824 79.306889 13.584184 79.211186 13.584184 C 79.106368 13.584184 79.023934 13.643461 78.964689 13.761951 L 78.73938 13.761951 L 78.73938 11.526428 L 78.964689 11.526428 C 79.092293 12.164448 79.336402 12.64515 79.696427 12.968717 C 80.056453 13.292285 80.459559 13.454476 80.906173 13.454476 C 81.220625 13.454476 81.476054 13.363399 81.672017 13.181108 C 81.872538 12.994259 81.972774 12.77063 81.972774 12.510864 C 81.972774 12.196411 81.861218 11.93234 81.637911 11.718148 C 81.419161 11.503955 80.979418 11.232369 80.318612 10.904244 C 79.657805 10.576119 79.224544 10.280249 79.019466 10.015926 C 78.814388 9.7561607 78.711991 9.4279741 78.711991 9.0314901 C 78.711991 8.5165166 78.887146 8.0859331 79.238057 7.7395793 C 79.593526 7.3932254 80.051587 7.2197144 80.612134 7.2197144 z M 86.504797 7.2197144 C 87.060786 7.2197144 87.516687 7.3134686 87.872156 7.5003174 C 88.141036 7.6415933 88.339347 7.8625451 88.466951 8.163326 C 88.548983 8.3592894 88.589941 8.7602342 88.589941 9.3663534 L 88.589941 11.492322 C 88.589941 12.089326 88.601261 12.456311 88.624048 12.59303 C 88.646834 12.725191 88.683472 12.814107 88.733602 12.85968 C 88.788289 12.905253 88.849727 12.927893 88.918087 12.927893 C 88.991003 12.927893 89.054602 12.911735 89.10929 12.879834 C 89.204993 12.820589 89.389824 12.654594 89.663261 12.381156 L 89.663261 12.764079 C 89.152845 13.447672 88.665144 13.789339 88.200301 13.789339 C 87.976994 13.789339 87.799162 13.711743 87.667 13.556795 C 87.534839 13.401847 87.466402 13.137776 87.461845 12.764079 C 86.819267 13.260823 86.416162 13.547534 86.2521 13.625008 C 86.006006 13.73894 85.743579 13.796057 85.465584 13.796057 C 85.032642 13.796057 84.675333 13.647863 84.392782 13.35164 C 84.114787 13.055416 83.975753 12.665791 83.975753 12.182719 C 83.975753 11.877381 84.04419 11.61331 84.180908 11.390002 C 84.367757 11.080107 84.691106 10.788041 85.151392 10.514604 C 85.616235 10.241166 86.386325 9.9086585 87.461845 9.5167318 L 87.461845 9.270752 C 87.461845 8.6464036 87.361609 8.2179807 87.161088 7.9855591 C 86.965125 7.7531374 86.677897 7.6367432 86.299642 7.6367432 C 86.012533 7.6367432 85.784582 7.7143393 85.615963 7.8692871 C 85.442786 8.0242349 85.356547 8.2020673 85.356547 8.4025879 L 85.369983 8.7989461 C 85.369983 9.0085813 85.315544 9.1702556 85.206169 9.2841878 C 85.101351 9.39812 84.962317 9.4552368 84.78914 9.4552368 C 84.62052 9.4552368 84.481486 9.3959594 84.372111 9.2774699 C 84.267293 9.1589804 84.215015 8.9973061 84.215015 8.7922282 C 84.215015 8.4003015 84.415487 8.0403154 84.816528 7.7121908 C 85.21757 7.3840661 85.780189 7.2197144 86.504797 7.2197144 z M 91.672957 7.2197144 L 91.959762 7.2197144 L 91.959762 8.6278971 C 92.48385 7.689096 93.021668 7.2197144 93.5731 7.2197144 C 93.823751 7.2197144 94.031222 7.2973105 94.195284 7.4522583 C 94.359346 7.6026488 94.441264 7.7783205 94.441264 7.9788411 C 94.441264 8.1565753 94.381986 8.3069296 94.263497 8.4299764 C 94.145007 8.5530232 94.003812 8.6144613 93.83975 8.6144613 C 93.680245 8.6144613 93.500252 8.5368651 93.299731 8.3819173 C 93.103768 8.2224123 92.958252 8.1426554 92.862549 8.1426554 C 92.780518 8.1426554 92.691601 8.1884522 92.595898 8.279598 C 92.390821 8.4664468 92.178511 8.7741541 91.959762 9.2025391 L 91.959762 12.203389 C 91.959762 12.549743 92.003398 12.811654 92.089986 12.989388 C 92.149231 13.112435 92.253788 13.214832 92.404179 13.296863 C 92.554569 13.378894 92.7712 13.420369 93.053752 13.420369 L 93.053752 13.666349 L 89.847746 13.666349 L 89.847746 13.420369 C 90.166756 13.420369 90.403866 13.369735 90.558813 13.269474 C 90.672746 13.196558 90.752502 13.08068 90.798075 12.921175 C 90.820862 12.843701 90.832182 12.622749 90.832182 12.258167 L 90.832182 9.8314412 C 90.832182 9.1022753 90.816024 8.6690143 90.784123 8.5322957 C 90.756779 8.3910198 90.70234 8.288623 90.620308 8.224821 C 90.542835 8.1610189 90.444759 8.1292196 90.32627 8.1292196 C 90.184994 8.1292196 90.02548 8.1631796 89.847746 8.2315389 L 89.779533 7.9855591 L 91.672957 7.2197144 z M 60.268673 7.404716 L 63.214746 7.404716 L 63.214746 7.6574137 L 63.023543 7.6574137 C 62.845809 7.6574137 62.708935 7.7005331 62.613232 7.7871216 C 62.522087 7.87371 62.476807 7.9901043 62.476807 8.1359375 C 62.476807 8.2954425 62.524247 8.4845949 62.61995 8.7033447 L 64.076192 12.162048 L 65.539152 8.5736369 C 65.64397 8.3184288 65.696248 8.1244383 65.696248 7.992277 C 65.696248 7.928475 65.67793 7.8761962 65.641471 7.8351807 C 65.591341 7.7668214 65.527742 7.7210246 65.450269 7.6982381 C 65.372795 7.6708944 65.215442 7.6574137 64.978463 7.6574137 L 64.978463 7.404716 L 67.022266 7.404716 L 67.022266 7.6574137 C 66.785287 7.6756429 66.621452 7.7236003 66.530306 7.8010742 C 66.370801 7.9377928 66.227445 8.1657433 66.099841 8.4847534 L 63.877755 13.857552 L 63.597668 13.857552 L 61.362146 8.5736369 C 61.261886 8.3275434 61.166488 8.1518716 61.075342 8.047054 C 60.984196 7.9376791 60.867802 7.8466023 60.726526 7.7736857 C 60.649052 7.7326701 60.496537 7.693872 60.268673 7.6574137 L 60.268673 7.404716 z M 94.434546 7.404716 L 97.353748 7.404716 L 97.353748 7.6574137 L 97.210087 7.6574137 C 97.005009 7.6574137 96.849817 7.7032105 96.744999 7.7943563 C 96.644739 7.8809447 96.594621 7.9903403 96.594621 8.1225016 C 96.594621 8.3002358 96.670056 8.5459883 96.820447 8.8604411 L 98.344902 12.018905 L 99.74585 8.5596842 C 99.823323 8.3728355 99.862122 8.1885211 99.862122 8.0062297 C 99.862122 7.9241985 99.84648 7.8622436 99.814579 7.821228 C 99.778121 7.7710979 99.721004 7.7328165 99.64353 7.7054728 C 99.566056 7.6735718 99.429183 7.6574137 99.233219 7.6574137 L 99.233219 7.404716 L 101.2703 7.404716 L 101.2703 7.6574137 C 101.10168 7.6756429 100.97181 7.7122803 100.88066 7.7669678 C 100.78952 7.8216552 100.68928 7.9240521 100.57991 8.0744425 C 100.53889 8.1382446 100.46181 8.3139163 100.34788 8.6010254 L 97.797648 14.848706 C 97.551555 15.454825 97.228206 15.912887 96.827165 16.222782 C 96.430681 16.532678 96.048055 16.68787 95.678914 16.68787 C 95.410034 16.68787 95.188566 16.610274 95.015389 16.455326 C 94.842212 16.300379 94.755973 16.122546 94.755973 15.922026 C 94.755973 15.730619 94.817411 15.575944 94.940458 15.457454 C 95.068062 15.343522 95.241057 15.286405 95.459806 15.286405 C 95.610197 15.286405 95.815507 15.336524 96.075273 15.436784 C 96.257564 15.505143 96.371281 15.539103 96.416854 15.539103 C 96.553572 15.539103 96.701766 15.468506 96.861271 15.32723 C 97.025333 15.185954 97.189685 14.912723 97.353748 14.507125 L 97.797648 13.420369 L 95.54869 8.6966268 C 95.48033 8.5553509 95.370935 8.3796792 95.220544 8.1700439 C 95.106612 8.0105389 95.013375 7.903304 94.940458 7.8486165 C 94.835641 7.7756999 94.666968 7.7121012 94.434546 7.6574137 L 94.434546 7.404716 z M 70.180729 7.6982381 C 69.802474 7.6982381 69.462968 7.8464318 69.162187 8.1426554 C 68.865963 8.4343218 68.692452 8.8422653 68.642322 9.3663534 L 71.540853 9.3663534 C 71.518066 8.9653121 71.470626 8.6829222 71.397709 8.5188599 C 71.283777 8.2636518 71.112427 8.0631794 70.884562 7.9173462 C 70.661255 7.771513 70.426823 7.6982381 70.180729 7.6982381 z M 87.461845 9.9337606 C 86.773695 10.207198 86.32963 10.400672 86.12911 10.514604 C 85.769084 10.715124 85.511495 10.924756 85.356547 11.143506 C 85.201599 11.362256 85.124003 11.601526 85.124003 11.861292 C 85.124003 12.189416 85.222079 12.463163 85.418042 12.681913 C 85.614005 12.896106 85.839278 13.003341 86.094486 13.003341 C 86.44084 13.003341 86.896741 12.77539 87.461845 12.319661 L 87.461845 9.9337606 z " />
</svg>
