<?xml version="1.0" encoding="UTF-8" standalone="no"?>
<svg
   width="120mm"
   height="20mm"
   viewBox="0 0 120 20"
   version="1.1"
   id="svg8"
   xmlns="http://www.w3.org/2000/svg"
   xmlns:svg="http://www.w3.org/2000/svg"
   xmlns:rdf="http://www.w3.org/1999/02/22-rdf-syntax-ns#"
   xmlns:cc="http://creativecommons.org/ns#"
   xmlns:dc="http://purl.org/dc/elements/1.1/">
  <defs
     id="defs2" />
  <metadata
     id="metadata5">
    <rdf:RDF>
      <cc:Work
         rdf:about="">
        <dc:format>image/svg+xml</dc:format>
        <dc:type
           rdf:resource="http://purl.org/dc/dcmitype/StillImage" />
      </cc:Work>
    </rdf:RDF>
  </metadata>
  <path
     id="path835"
     style="fill:#000000;fill-opacity:1;stroke:none;stroke-width:0.265;stroke-linecap:butt;stroke-linejoin:miter;stroke-miterlimit:4;stroke-dasharray:none;stroke-opacity:1"
     d="M 9.9999064 0 L 0 9.9999064 L 9.9999064 19.999813 L 110 19.999813 L 119.99991 9.9999064 L 110 0 L 9.9999064 0 z M 30.673063 2.911967 L 30.848763 2.911967 L 30.848763 7.0486654 C 30.848763 7.4679358 30.857922 7.7243775 30.876152 7.8181274 C 30.896985 7.9092732 30.928019 7.9728719 30.969686 8.0093302 C 31.013957 8.0457885 31.06484 8.0641073 31.122131 8.0641073 C 31.192444 8.0641073 31.286064 8.0422322 31.403251 7.9979614 L 31.446143 8.1343872 L 30.383675 8.5762207 L 30.204358 8.5762207 L 30.204358 8.0641073 C 30.029879 8.2463987 29.858911 8.3781861 29.692244 8.4589152 C 29.525578 8.5370401 29.345967 8.5762207 29.153259 8.5762207 C 28.762635 8.5762207 28.421732 8.4133989 28.130066 8.0878784 C 27.8384 7.7597537 27.692367 7.3389603 27.692367 6.8259399 C 27.692367 6.3129196 27.853658 5.844303 28.176575 5.4198242 C 28.499491 4.9927413 28.915198 4.7790365 29.42301 4.7790365 C 29.738114 4.7790365 29.998629 4.8792727 30.204358 5.0797933 L 30.204358 4.4198853 C 30.204358 4.0110315 30.193669 3.759676 30.172835 3.6659261 C 30.154606 3.5721762 30.124585 3.5080607 30.082918 3.4742065 C 30.041252 3.4403524 29.989355 3.4235636 29.926855 3.4235636 C 29.859147 3.4235636 29.769084 3.4444255 29.657104 3.4860921 L 29.606462 3.3496663 L 30.673063 2.911967 z M 60.295028 4.345988 C 60.486434 4.345988 60.648108 4.4144248 60.780269 4.5511434 C 60.916988 4.6833047 60.985425 4.844979 60.985425 5.0363851 C 60.985425 5.2277911 60.916988 5.3916261 60.780269 5.5283447 C 60.648108 5.6650633 60.486434 5.7335002 60.295028 5.7335002 C 60.103622 5.7335002 59.93927 5.6650633 59.802551 5.5283447 C 59.665833 5.3916261 59.597913 5.2277911 59.597913 5.0363851 C 59.597913 4.844979 59.663672 4.6833047 59.795833 4.5511434 C 59.932552 4.4144248 60.099064 4.345988 60.295028 4.345988 z M 39.048779 4.5852498 L 39.288041 4.5852498 L 42.514718 12.29589 C 42.774483 12.915681 43.008915 13.319304 43.218551 13.506152 C 43.432743 13.688444 43.72913 13.790841 44.107385 13.813627 L 44.107385 14.066842 L 40.450244 14.066842 L 40.450244 13.813627 C 40.819384 13.795398 41.067814 13.73396 41.195418 13.629142 C 41.32758 13.524325 41.393339 13.39661 41.393339 13.24622 C 41.393339 13.045699 41.302262 12.728833 41.119971 12.29589 L 40.559798 10.963155 L 36.97087 10.963155 L 36.341968 12.426115 C 36.18702 12.786141 36.109424 13.05505 36.109424 13.232784 C 36.109424 13.37406 36.1757 13.499097 36.307861 13.608472 C 36.44458 13.713289 36.736129 13.781726 37.182743 13.813627 L 37.182743 14.066842 L 34.263542 14.066842 L 34.263542 13.813627 C 34.650911 13.745268 34.901502 13.656352 35.015434 13.546977 C 35.247855 13.328227 35.505445 12.884163 35.787996 12.214242 L 39.048779 4.5852498 z M 19.639628 4.6059204 C 20.39158 4.6059204 21.018315 4.8473516 21.519617 5.330424 C 22.025476 5.8134964 22.278227 6.3831143 22.278227 7.0393636 C 22.278227 7.5087642 22.168831 7.9781458 21.950081 8.4475464 C 21.612842 9.1858269 21.065864 9.9672372 20.309355 10.792106 C 19.17459 12.031688 18.465938 12.779138 18.183386 13.034347 L 20.603394 13.034347 C 21.095581 13.034347 21.439925 13.016028 21.635889 12.979569 C 21.836409 12.943111 22.016402 12.870353 22.175907 12.760978 C 22.335412 12.647046 22.474447 12.487532 22.592936 12.282454 L 22.845634 12.282454 L 22.196061 14.066842 L 16.727661 14.066842 L 16.727661 13.813627 C 18.336383 12.346181 19.46862 11.147668 20.12487 10.217981 C 20.781119 9.2882944 21.109306 8.4384473 21.109306 7.6682658 C 21.109306 7.0803758 20.929313 6.5969967 20.569287 6.2187419 C 20.209261 5.840487 19.778678 5.6513346 19.277376 5.6513346 C 18.821648 5.6513346 18.411543 5.7860476 18.04696 6.0549276 C 17.686935 6.3192502 17.420186 6.708875 17.247009 7.2238485 L 16.994312 7.2238485 C 17.108244 6.3807504 17.399793 5.7335363 17.869194 5.2823649 C 18.343151 4.8311935 18.933249 4.6059204 19.639628 4.6059204 z M 24.55199 4.7831706 L 24.719938 4.7831706 L 24.719938 5.5407471 C 25.139209 5.0355392 25.538623 4.7831706 25.918831 4.7831706 C 26.114144 4.7831706 26.282052 4.8325237 26.422677 4.9314819 C 26.563301 5.027836 26.67524 5.1881146 26.758573 5.4120728 C 26.815865 5.5683226 26.844873 5.8079756 26.844873 6.1308919 L 26.844873 7.6579305 C 26.844873 7.8844928 26.863192 8.0381552 26.89965 8.1188843 C 26.928296 8.1839884 26.973576 8.2348715 27.036076 8.2713298 C 27.10118 8.307788 27.219735 8.3261068 27.39161 8.3261068 L 27.39161 8.4666667 L 25.622209 8.4666667 L 25.622209 8.3261068 L 25.696106 8.3261068 C 25.862772 8.3261068 25.978784 8.3011718 26.043888 8.2516927 C 26.111597 8.1996094 26.158407 8.1243082 26.184448 8.0253499 C 26.194865 7.9862875 26.199951 7.8636595 26.199951 7.6579305 L 26.199951 6.1934204 C 26.199951 5.8678999 26.157214 5.6318032 26.071277 5.4859701 C 25.987944 5.3375327 25.845984 5.2632446 25.645463 5.2632446 C 25.335568 5.2632446 25.02723 5.4326826 24.719938 5.771224 L 24.719938 7.6579305 C 24.719938 7.9001178 24.734184 8.0497071 24.76283 8.1069987 C 24.799288 8.1825195 24.848641 8.2384888 24.911141 8.2749471 C 24.976245 8.3088012 25.106502 8.3261068 25.301815 8.3261068 L 25.301815 8.4666667 L 23.532414 8.4666667 L 23.532414 8.3261068 L 23.610445 8.3261068 C 23.792737 8.3261068 23.914848 8.28031 23.977348 8.1891642 C 24.042452 8.0954143 24.075016 7.9183469 24.075016 7.6579305 L 24.075016 6.3298462 C 24.075016 5.9001591 24.064844 5.6386311 24.04401 5.5448812 C 24.025781 5.4511313 23.99576 5.3870158 23.954093 5.3531616 C 23.915031 5.3193075 23.861605 5.3025187 23.793896 5.3025187 C 23.72098 5.3025187 23.633976 5.3218506 23.532414 5.3609131 L 23.473503 5.2203532 L 24.55199 4.7831706 z M 29.375985 5.0213989 C 29.146818 5.0213989 28.942273 5.1241783 28.762585 5.3299072 C 28.525607 5.6007403 28.407052 5.9965988 28.407052 6.5174316 C 28.407052 7.0434728 28.52205 7.4469607 28.751217 7.7282104 C 28.980383 8.006856 29.235295 8.1462728 29.516545 8.1462728 C 29.753524 8.1462728 29.983004 8.0277179 30.204358 7.7907389 L 30.204358 5.9469238 C 30.188733 5.7698407 30.141406 5.6085488 30.063281 5.4627157 C 29.985156 5.3168825 29.881364 5.2074869 29.751156 5.1345703 C 29.623552 5.0590496 29.49838 5.0213989 29.375985 5.0213989 z M 38.796082 6.7112183 L 37.182743 10.457243 L 40.368079 10.457243 L 38.796082 6.7112183 z M 72.565597 7.6134888 C 73.267419 7.6134888 73.843519 7.8457606 74.29469 8.3106038 C 74.745861 8.7708898 74.971651 9.3884651 74.971651 10.163204 L 70.644784 10.163204 C 70.640226 11.092891 70.865499 11.822022 71.321228 12.350667 C 71.776957 12.879313 72.312615 13.143901 72.927848 13.143901 C 73.338004 13.143901 73.693152 13.032344 73.993933 12.809037 C 74.299271 12.581173 74.5547 12.193709 74.759778 11.646834 L 74.971651 11.78326 C 74.875948 12.407608 74.59788 12.977226 74.137594 13.4922 C 73.677308 14.002616 73.100691 14.258044 72.407983 14.258044 C 71.656031 14.258044 71.011494 13.966495 70.473735 13.383162 C 69.940532 12.795272 69.673783 12.006863 69.673783 11.017932 C 69.673783 9.9469697 69.947014 9.1127639 70.493888 8.5157593 C 71.04532 7.9141974 71.73617 7.6134888 72.565597 7.6134888 z M 46.233354 7.6202067 L 46.527393 7.6202067 L 46.527393 8.9467407 C 47.261116 8.062627 47.960609 7.6202067 48.625972 7.6202067 C 48.967769 7.6202067 49.261479 7.7069622 49.507572 7.8801392 C 49.753666 8.0487588 49.949817 8.328988 50.09565 8.7209147 C 50.195911 8.9943519 50.246029 9.4136155 50.246029 9.9787191 L 50.246029 12.651424 C 50.246029 13.047908 50.277828 13.316817 50.34163 13.458093 C 50.39176 13.572025 50.471517 13.660942 50.580892 13.724744 C 50.694824 13.788546 50.902295 13.820345 51.203076 13.820345 L 51.203076 14.066842 L 48.106624 14.066842 L 48.106624 13.820345 L 48.236332 13.820345 C 48.527999 13.820345 48.730632 13.777226 48.844564 13.690637 C 48.963053 13.599491 49.045488 13.467456 49.09106 13.294279 C 49.10929 13.22592 49.117932 13.01145 49.117932 12.651424 L 49.117932 10.088273 C 49.117932 9.5186122 49.043013 9.1058306 48.892623 8.8506226 C 48.74679 8.5908572 48.49836 8.4609823 48.147449 8.4609823 C 47.605132 8.4609823 47.065152 8.7573696 46.527393 9.3498169 L 46.527393 12.651424 C 46.527393 13.075252 46.552193 13.337679 46.602323 13.437939 C 46.666125 13.570101 46.752881 13.66766 46.862256 13.731462 C 46.976188 13.790706 47.204139 13.820345 47.545935 13.820345 L 47.545935 14.066842 L 44.448966 14.066842 L 44.448966 13.820345 L 44.585909 13.820345 C 44.904919 13.820345 45.119389 13.740588 45.228764 13.581083 C 45.342696 13.417021 45.399296 13.107153 45.399296 12.651424 L 45.399296 10.327535 C 45.399296 9.5755826 45.380977 9.117521 45.344519 8.9534587 C 45.312618 8.7893963 45.260339 8.6778401 45.187423 8.6185954 C 45.119063 8.5593506 45.025826 8.5297119 44.907336 8.5297119 C 44.779732 8.5297119 44.626701 8.5636719 44.448966 8.6320312 L 44.346647 8.3860514 L 46.233354 7.6202067 z M 53.233443 7.6202067 L 53.527482 7.6202067 L 53.527482 8.9467407 C 54.261205 8.062627 54.960698 7.6202067 55.626062 7.6202067 C 55.967859 7.6202067 56.261568 7.7069622 56.507662 7.8801392 C 56.753755 8.0487588 56.949907 8.328988 57.09574 8.7209147 C 57.196 8.9943519 57.246118 9.4136155 57.246118 9.9787191 L 57.246118 12.651424 C 57.246118 13.047908 57.277918 13.316817 57.34172 13.458093 C 57.39185 13.572025 57.471607 13.660942 57.580981 13.724744 C 57.694914 13.788546 57.902385 13.820345 58.203166 13.820345 L 58.203166 14.066842 L 55.106197 14.066842 L 55.106197 13.820345 L 55.236422 13.820345 C 55.528088 13.820345 55.730721 13.777226 55.844653 13.690637 C 55.963143 13.599491 56.04506 13.467456 56.090633 13.294279 C 56.108862 13.22592 56.118022 13.01145 56.118022 12.651424 L 56.118022 10.088273 C 56.118022 9.5186122 56.043103 9.1058306 55.892712 8.8506226 C 55.746879 8.5908572 55.498449 8.4609823 55.147538 8.4609823 C 54.605221 8.4609823 54.065242 8.7573696 53.527482 9.3498169 L 53.527482 12.651424 C 53.527482 13.075252 53.552283 13.337679 53.602413 13.437939 C 53.666215 13.570101 53.75297 13.66766 53.862345 13.731462 C 53.976278 13.790706 54.204228 13.820345 54.546025 13.820345 L 54.546025 14.066842 L 51.449056 14.066842 L 51.449056 13.820345 L 51.585999 13.820345 C 51.905009 13.820345 52.118962 13.740588 52.228337 13.581083 C 52.342269 13.417021 52.399386 13.107153 52.399386 12.651424 L 52.399386 10.327535 C 52.399386 9.5755826 52.381067 9.117521 52.344609 8.9534587 C 52.312708 8.7893963 52.260429 8.6778401 52.187512 8.6185954 C 52.119153 8.5593506 52.025915 8.5297119 51.907426 8.5297119 C 51.779822 8.5297119 51.62679 8.5636719 51.449056 8.6320312 L 51.346737 8.3860514 L 53.233443 7.6202067 z M 60.561678 7.6202067 L 60.862435 7.6202067 L 60.862435 12.651424 C 60.862435 13.043351 60.889396 13.305778 60.944084 13.437939 C 61.003328 13.565543 61.087923 13.660942 61.197298 13.724744 C 61.31123 13.788546 61.516024 13.820345 61.812248 13.820345 L 61.812248 14.066842 L 58.770573 14.066842 L 58.770573 13.820345 C 59.075911 13.820345 59.280705 13.790706 59.385522 13.731462 C 59.49034 13.672217 59.572774 13.574658 59.632019 13.437939 C 59.695821 13.301221 59.72762 13.038794 59.72762 12.651424 L 59.72762 10.238652 C 59.72762 9.5596158 59.707141 9.1198728 59.666125 8.9193522 C 59.634224 8.773519 59.584106 8.6732828 59.515747 8.6185954 C 59.447388 8.5593506 59.353634 8.5297119 59.235144 8.5297119 C 59.10754 8.5297119 58.952864 8.5636719 58.770573 8.6320312 L 58.674972 8.3860514 L 60.561678 7.6202067 z M 77.350834 7.6202067 L 77.637638 7.6202067 L 77.637638 9.0283895 C 78.161726 8.0895883 78.699545 7.6202067 79.250977 7.6202067 C 79.501627 7.6202067 79.709098 7.6978029 79.873161 7.8527507 C 80.037223 8.0031411 80.119141 8.1788129 80.119141 8.3793335 C 80.119141 8.5570677 80.059863 8.707422 79.941374 8.8304687 C 79.822884 8.9535155 79.681689 9.0149536 79.517627 9.0149536 C 79.358122 9.0149536 79.178129 8.9373574 78.977608 8.7824097 C 78.781645 8.6229046 78.635612 8.5431478 78.539909 8.5431478 C 78.457878 8.5431478 78.368961 8.5889446 78.273258 8.6800903 C 78.068181 8.8669391 77.856388 9.1741297 77.637638 9.6025146 L 77.637638 12.603882 C 77.637638 12.950236 77.680758 13.212146 77.767346 13.38988 C 77.826591 13.512927 77.931665 13.615324 78.082056 13.697355 C 78.232446 13.779386 78.449077 13.820345 78.731628 13.820345 L 78.731628 14.066842 L 75.525623 14.066842 L 75.525623 13.820345 C 75.844633 13.820345 76.081226 13.770227 76.236174 13.669967 C 76.350106 13.59705 76.429863 13.481173 76.475435 13.321667 C 76.498222 13.244194 76.509542 13.022725 76.509542 12.658142 L 76.509542 10.231417 C 76.509542 9.5022509 76.493901 9.0695067 76.462 8.9327881 C 76.434656 8.7915122 76.3797 8.6891153 76.297668 8.6253133 C 76.220195 8.5615113 76.122636 8.5297119 76.004146 8.5297119 C 75.86287 8.5297119 75.703357 8.5636719 75.525623 8.6320312 L 75.456893 8.3860514 L 77.350834 7.6202067 z M 82.614079 7.6202067 C 82.860172 7.6202067 83.15872 7.6724855 83.509631 7.7773031 C 83.742053 7.8456624 83.897245 7.8801392 83.974719 7.8801392 C 84.047636 7.8801392 84.104236 7.8639811 84.145251 7.8320801 C 84.186267 7.8001791 84.234225 7.7295816 84.288912 7.6202067 L 84.514738 7.6202067 L 84.514738 9.7528931 L 84.288912 9.7528931 C 84.115735 9.0829719 83.892623 8.6275876 83.619185 8.3860514 C 83.350305 8.1445152 83.005961 8.0237996 82.58669 8.0237996 C 82.26768 8.0237996 82.010608 8.1078778 81.814644 8.2764974 C 81.618681 8.445117 81.520605 8.6321088 81.520605 8.8371867 C 81.520605 9.0923948 81.593364 9.3111859 81.739197 9.4934774 C 81.880473 9.6803261 82.167701 9.8786379 82.600643 10.088273 L 83.598515 10.573515 C 84.523644 11.024686 84.986544 11.619105 84.986544 12.357385 C 84.986544 12.927046 84.769913 13.387785 84.336971 13.738696 C 83.908586 14.08505 83.427884 14.258044 82.894682 14.258044 C 82.51187 14.258044 82.074287 14.189608 81.5821 14.052889 C 81.43171 14.007316 81.308834 13.984676 81.213131 13.984676 C 81.108313 13.984676 81.025879 14.043954 80.966634 14.162443 L 80.741325 14.162443 L 80.741325 11.926921 L 80.966634 11.926921 C 81.094238 12.564941 81.338347 13.045642 81.698372 13.36921 C 82.058398 13.692777 82.461504 13.854451 82.908118 13.854451 C 83.22257 13.854451 83.477999 13.763375 83.673962 13.581083 C 83.874483 13.394234 83.974719 13.171122 83.974719 12.911357 C 83.974719 12.596904 83.863163 12.332316 83.639856 12.118123 C 83.421106 11.903931 82.981363 11.632861 82.320557 11.304736 C 81.65975 10.976612 81.226489 10.680741 81.021411 10.416418 C 80.816333 10.156653 80.713936 9.8284664 80.713936 9.4319824 C 80.713936 8.917009 80.889091 8.4864254 81.240002 8.1400716 C 81.595471 7.7937178 82.053532 7.6202067 82.614079 7.6202067 z M 88.506742 7.6202067 C 89.062731 7.6202067 89.518632 7.713961 89.874101 7.9008097 C 90.142981 8.0420856 90.341292 8.2630374 90.468896 8.5638184 C 90.550928 8.7597817 90.591886 9.1607265 90.591886 9.7668457 L 90.591886 11.892814 C 90.591886 12.489819 90.603206 12.856804 90.625993 12.993522 C 90.648779 13.125683 90.685417 13.2146 90.735547 13.260173 C 90.790234 13.305745 90.851672 13.328385 90.920032 13.328385 C 90.992948 13.328385 91.056547 13.312227 91.111235 13.280326 C 91.206938 13.221082 91.391769 13.055086 91.665206 12.781649 L 91.665206 13.164054 C 91.15479 13.847647 90.667089 14.189832 90.202246 14.189832 C 89.978939 14.189832 89.801107 14.112235 89.668945 13.957288 C 89.536784 13.80234 89.468347 13.537752 89.46379 13.164054 C 88.821212 13.660799 88.418107 13.948027 88.254045 14.0255 C 88.007951 14.139433 87.745524 14.196549 87.467529 14.196549 C 87.034587 14.196549 86.677278 14.048356 86.394727 13.752132 C 86.116732 13.455908 85.977698 13.066284 85.977698 12.583211 C 85.977698 12.277873 86.046135 12.013285 86.182853 11.789978 C 86.369702 11.480083 86.693051 11.188533 87.153337 10.915096 C 87.61818 10.641659 88.38827 10.309151 89.46379 9.9172241 L 89.46379 9.6712443 C 89.46379 9.046896 89.363554 8.6184731 89.163033 8.3860514 C 88.96707 8.1536298 88.679842 8.0372355 88.301587 8.0372355 C 88.014478 8.0372355 87.786527 8.1148317 87.617908 8.2697795 C 87.444731 8.4247272 87.358492 8.6025596 87.358492 8.8030802 L 87.371928 9.1994385 C 87.371928 9.4090737 87.317488 9.570748 87.208114 9.6846802 C 87.103296 9.7986124 86.964262 9.8557292 86.791085 9.8557292 C 86.622465 9.8557292 86.483431 9.7964517 86.374056 9.6779622 C 86.269238 9.5594728 86.21696 9.3977985 86.21696 9.1927205 C 86.21696 8.8007938 86.417432 8.4408078 86.818473 8.1126831 C 87.219515 7.7845584 87.782134 7.6202067 88.506742 7.6202067 z M 93.674902 7.6202067 L 93.961707 7.6202067 L 93.961707 9.0283895 C 94.485795 8.0895883 95.023613 7.6202067 95.575045 7.6202067 C 95.825696 7.6202067 96.033167 7.6978029 96.197229 7.8527507 C 96.361291 8.0031411 96.443209 8.1788129 96.443209 8.3793335 C 96.443209 8.5570677 96.383931 8.707422 96.265442 8.8304687 C 96.146952 8.9535155 96.005757 9.0149536 95.841695 9.0149536 C 95.68219 9.0149536 95.502197 8.9373574 95.301676 8.7824097 C 95.105713 8.6229046 94.960197 8.5431478 94.864494 8.5431478 C 94.782463 8.5431478 94.693546 8.5889446 94.597843 8.6800903 C 94.392766 8.8669391 94.180456 9.1741297 93.961707 9.6025146 L 93.961707 12.603882 C 93.961707 12.950236 94.005343 13.212146 94.091931 13.38988 C 94.151176 13.512927 94.255733 13.615324 94.406124 13.697355 C 94.556514 13.779386 94.773145 13.820345 95.055697 13.820345 L 95.055697 14.066842 L 91.849691 14.066842 L 91.849691 13.820345 C 92.168701 13.820345 92.405811 13.770227 92.560758 13.669967 C 92.674691 13.59705 92.754447 13.481173 92.80002 13.321667 C 92.822807 13.244194 92.834127 13.022725 92.834127 12.658142 L 92.834127 10.231417 C 92.834127 9.5022509 92.817969 9.0695067 92.786068 8.9327881 C 92.758724 8.7915122 92.704285 8.6891153 92.622253 8.6253133 C 92.54478 8.5615113 92.446704 8.5297119 92.328215 8.5297119 C 92.186939 8.5297119 92.027425 8.5636719 91.849691 8.6320312 L 91.781478 8.3860514 L 93.674902 7.6202067 z M 62.270618 7.8046916 L 65.216691 7.8046916 L 65.216691 8.0579061 L 65.025488 8.0579061 C 64.847754 8.0579061 64.71088 8.1010255 64.615177 8.1876139 C 64.524032 8.2742024 64.478752 8.3905967 64.478752 8.5364299 C 64.478752 8.6959349 64.526192 8.8850873 64.621895 9.1038371 L 66.078137 12.562541 L 67.541097 8.9736125 C 67.645915 8.7184044 67.698193 8.5249307 67.698193 8.3927694 C 67.698193 8.3289673 67.679875 8.2766886 67.643416 8.235673 C 67.593286 8.1673137 67.529687 8.1215169 67.452214 8.0987305 C 67.37474 8.0713867 67.217387 8.0579061 66.980408 8.0579061 L 66.980408 7.8046916 L 69.024211 7.8046916 L 69.024211 8.0579061 C 68.787232 8.0761352 68.623397 8.1240927 68.532251 8.2015666 C 68.372746 8.3382852 68.22939 8.5657189 68.101786 8.884729 L 65.8797 14.258044 L 65.599613 14.258044 L 63.364091 8.9736125 C 63.263831 8.727519 63.168433 8.552364 63.077287 8.4475464 C 62.986141 8.3381715 62.869747 8.2470947 62.728471 8.1741781 C 62.650997 8.1331625 62.498482 8.0943644 62.270618 8.0579061 L 62.270618 7.8046916 z M 96.436491 7.8046916 L 99.355693 7.8046916 L 99.355693 8.0579061 L 99.212032 8.0579061 C 99.006954 8.0579061 98.851762 8.1031861 98.746944 8.1943319 C 98.646684 8.2809203 98.596566 8.3903159 98.596566 8.5224772 C 98.596566 8.7002114 98.672001 8.9464806 98.822392 9.2609334 L 100.34685 12.419397 L 101.74779 8.9601766 C 101.82527 8.7733278 101.86407 8.5884967 101.86407 8.4062052 C 101.86407 8.3241741 101.84843 8.262736 101.81652 8.2217204 C 101.78007 8.1715902 101.72295 8.1327921 101.64548 8.1054484 C 101.568 8.0735474 101.43113 8.0579061 101.23516 8.0579061 L 101.23516 7.8046916 L 103.27225 7.8046916 L 103.27225 8.0579061 C 103.10363 8.0761352 102.97375 8.1122559 102.88261 8.1669434 C 102.79146 8.2216308 102.69123 8.3245444 102.58185 8.4749349 C 102.54084 8.5387369 102.46376 8.7138919 102.34983 9.001001 L 99.799593 15.249198 C 99.5535 15.855318 99.230151 16.313379 98.82911 16.623275 C 98.432626 16.93317 98.05 17.087846 97.680859 17.087846 C 97.411979 17.087846 97.190511 17.010766 97.017334 16.855819 C 96.844157 16.700871 96.757918 16.523039 96.757918 16.322518 C 96.757918 16.131112 96.819356 15.975919 96.942403 15.85743 C 97.070007 15.743498 97.243002 15.686898 97.461751 15.686898 C 97.612142 15.686898 97.817452 15.737016 98.077218 15.837276 C 98.259509 15.905636 98.373226 15.939596 98.418799 15.939596 C 98.555517 15.939596 98.703711 15.868998 98.863216 15.727722 C 99.027278 15.586446 99.19163 15.313216 99.355693 14.907617 L 99.799593 13.820345 L 97.550635 9.0971191 C 97.482275 8.9558432 97.37288 8.7801715 97.222489 8.5705363 C 97.108557 8.4110312 97.01532 8.3037963 96.942403 8.2491089 C 96.837586 8.1761923 96.668913 8.1125935 96.436491 8.0579061 L 96.436491 7.8046916 z M 72.182674 8.0987305 C 71.804419 8.0987305 71.464913 8.2469241 71.164132 8.5431478 C 70.867908 8.8348142 70.694914 9.2427577 70.644784 9.7668457 L 73.542798 9.7668457 C 73.520011 9.3658044 73.472571 9.0834145 73.399654 8.9193522 C 73.285722 8.6641441 73.114372 8.463155 72.886507 8.3173218 C 72.6632 8.1714886 72.428768 8.0987305 72.182674 8.0987305 z M 89.46379 10.334253 C 88.77564 10.60769 88.331575 10.801164 88.131055 10.915096 C 87.771029 11.115617 87.51344 11.325248 87.358492 11.543998 C 87.203544 11.762748 87.125948 12.002018 87.125948 12.261784 C 87.125948 12.589909 87.224024 12.863656 87.419987 13.082406 C 87.61595 13.296598 87.841223 13.403316 88.096431 13.403316 C 88.442785 13.403316 88.898686 13.175883 89.46379 12.720154 L 89.46379 10.334253 z " />
</svg>
