<?xml version="1.0" encoding="UTF-8" standalone="no"?>
<svg
   xmlns:dc="http://purl.org/dc/elements/1.1/"
   xmlns:cc="http://creativecommons.org/ns#"
   xmlns:rdf="http://www.w3.org/1999/02/22-rdf-syntax-ns#"
   xmlns:svg="http://www.w3.org/2000/svg"
   xmlns="http://www.w3.org/2000/svg"
   width="20mm"
   height="20mm"
   viewBox="0 0 20 20"
   version="1.1"
   id="svg8">
  <defs
     id="defs2" />
  <metadata
     id="metadata5">
    <rdf:RDF>
      <cc:Work
         rdf:about="">
        <dc:format>image/svg+xml</dc:format>
        <dc:type
           rdf:resource="http://purl.org/dc/dcmitype/StillImage" />
        <dc:title></dc:title>
      </cc:Work>
    </rdf:RDF>
  </metadata>
  <path
     id="path833"
     style="fill:#000000;stroke-width:1.00157"
     d="M 37.794922 0 A 37.795276 37.795276 0 0 0 0 37.794922 A 37.795276 37.795276 0 0 0 37.794922 75.589844 A 37.795276 37.795276 0 0 0 75.589844 37.794922 A 37.795276 37.795276 0 0 0 37.794922 0 z M 37.777344 12.492188 C 39.357208 12.492187 40.693357 13.051864 41.787109 14.169922 C 42.880862 15.263674 43.427734 16.588972 43.427734 18.144531 C 43.427734 19.70009 42.870011 21.023435 41.751953 22.117188 C 40.658201 23.21094 39.332903 23.757813 37.777344 23.757812 C 36.221785 23.757812 34.896487 23.21094 33.802734 22.117188 C 32.708982 21.023435 32.162109 19.70009 32.162109 18.144531 C 32.162109 16.588972 32.708982 15.263674 33.802734 14.169922 C 34.896487 13.051864 36.221785 12.492188 37.777344 12.492188 z M 28.589844 29.009766 L 42.880859 29.009766 L 42.880859 56.025391 C 42.880859 58.431646 43.161674 59.97374 43.720703 60.654297 C 44.279732 61.310548 45.373477 61.687934 47.001953 61.785156 L 47.001953 63.097656 L 28.589844 63.097656 L 28.589844 61.785156 C 30.096792 61.736545 31.214191 61.299047 31.943359 60.472656 C 32.429472 59.913627 32.673828 58.431646 32.673828 56.025391 L 32.673828 36.119141 C 32.673828 33.712885 32.393013 32.181642 31.833984 31.525391 C 31.274955 30.844834 30.194014 30.454644 28.589844 30.357422 L 28.589844 29.009766 z "
     transform="scale(0.26458333)" />
</svg>
