<?xml version="1.0" encoding="utf-8"?>
<!-- Generator: Adobe Illustrator 26.1.0, SVG Export Plug-In . SVG Version: 6.00 Build 0)  -->
<svg version="1.1" xmlns="http://www.w3.org/2000/svg" xmlns:xlink="http://www.w3.org/1999/xlink" x="0px" y="0px"
	 viewBox="0 0 1000 1000" style="enable-background:new 0 0 1000 1000;" xml:space="preserve">
<style type="text/css">
	.st1{opacity:0.25;fill:#A7DFF7;stroke:#E7F6FF;stroke-width:10;stroke-miterlimit:10;}
	.st2{opacity:0.25;fill:none;stroke:#E7F6FF;stroke-width:10;stroke-miterlimit:10;}
</style>
<g id="Layer_2">
	<circle class="st1" cx="282.7" cy="723.7" r="254.3"/>
	<path class="st2" d="M152,708.2c0,0-23,77.3,59.6,132.7"/>
	<path class="st2" d="M321.2,583.8c0,0-110.4-35.8-188.9,26.2c0,0,31.2-84,172.5-94.3C446.1,505.3,457.9,671.5,458,747.1
		C454.2,739.6,391,601.1,321.2,583.8z"/>
	<circle class="st1" cx="711.9" cy="356" r="254.3"/>
	<path class="st2" d="M727.4,225.3c0,0-77.3-23-132.7,59.6"/>
	<path class="st2" d="M851.8,394.6c0,0,35.8-110.4-26.2-188.9c0,0,84,31.2,94.3,172.5C930.2,519.4,764,531.2,688.5,531.4
		C696,527.6,834.4,464.3,851.8,394.6z"/>
</g>
</svg>
