<?xml version="1.0" encoding="utf-8"?>
<!-- Generator: Adobe Illustrator 26.1.0, SVG Export Plug-In . SVG Version: 6.00 Build 0)  -->
<svg version="1.1" xmlns="http://www.w3.org/2000/svg" xmlns:xlink="http://www.w3.org/1999/xlink" x="0px" y="0px"
	 viewBox="0 0 1000 1000" style="enable-background:new 0 0 1000 1000;" xml:space="preserve">
<style type="text/css">
	.st1{opacity:0.25;fill:#A7DFF7;stroke:#E7F6FF;stroke-width:10;stroke-miterlimit:10;}
	.st2{opacity:0.25;fill:none;stroke:#E7F6FF;stroke-width:10;stroke-miterlimit:10;}
</style>
<g id="Layer_2">
	<circle class="st1" cx="248.7" cy="740.7" r="220.4"/>
	<path class="st2" d="M135.5,727.3c0,0-20,67,51.6,115"/>
	<path class="st2" d="M282.2,619.5c0,0-95.7-31-163.7,22.7c0,0,27-72.8,149.5-81.7S400.6,695.5,400.7,761
		C397.4,754.5,342.6,634.5,282.2,619.5z"/>
	<circle class="st1" cx="739.6" cy="636.3" r="220.4"/>
	<path class="st2" d="M753,523.1c0,0-67-20-115,51.6"/>
	<path class="st2" d="M860.8,669.7c0,0,31-95.7-22.7-163.7c0,0,72.8,27,81.7,149.5S784.8,788.2,719.3,788.3
		C725.8,785,845.8,730.2,860.8,669.7z"/>
	<circle class="st1" cx="400.4" cy="280.6" r="220.4"/>
	<path class="st2" d="M512.5,301.3c0,0,24.3-65.6-44.1-118.1"/>
	<path class="st2" d="M359.2,399.4c0,0,93.5,37.1,164.8-12c0,0-31.7,70.9-154.4,71.9S246,315.8,250.1,250.5
		C252.9,257.2,299.9,380.5,359.2,399.4z"/>
</g>
</svg>
