<?xml version="1.0" encoding="utf-8"?>
<!-- Generator: Adobe Illustrator 26.1.0, SVG Export Plug-In . SVG Version: 6.00 Build 0)  -->
<svg version="1.1" xmlns="http://www.w3.org/2000/svg" xmlns:xlink="http://www.w3.org/1999/xlink" x="0px" y="0px"
	 viewBox="0 0 1000 1000" style="enable-background:new 0 0 1000 1000;" xml:space="preserve">
<style type="text/css">
	.st0{fill:none;stroke:#372949;stroke-miterlimit:10;}
	.st1{fill:url(#SVGID_1_);stroke:#000000;stroke-width:7;stroke-miterlimit:10;}
</style>
<g id="Layer_1">
	<path class="st0" d="M712.4,484.6"/>
	<path class="st0" d="M548.8,300.9"/>
	<linearGradient id="SVGID_1_" gradientUnits="userSpaceOnUse" x1="207.2619" y1="538.6486" x2="1014.7739" y2="357.9723">
		<stop  offset="2.214466e-02" style="stop-color:#37284B"/>
		<stop  offset="0.2435" style="stop-color:#38264F"/>
		<stop  offset="0.4757" style="stop-color:#3B1F5C"/>
		<stop  offset="0.7129" style="stop-color:#401371"/>
		<stop  offset="0.9522" style="stop-color:#48038E"/>
		<stop  offset="0.995" style="stop-color:#490094"/>
	</linearGradient>
	<path class="st1" d="M522,673.9c87.8,98.6,156.8,176.4,156.8,176.4l226.5-201.8l-157-175.6c61.8-55,104.2-92.8,104.2-92.8
		L650.8,153.4c0,0-42.5,37.8-104.2,92.8L398,78.9L171.5,280.6L320.6,448L81.3,660.8L283,887.3C283,887.3,395.9,786.2,522,673.9
		L522,673.9l1,1.1"/>
	<path class="st0" d="M356.4,475"/>
	<path class="st0" d="M522,660.9"/>
	<path class="st0" d="M543.9,299.3"/>
	<path class="st0" d="M353.7,468.7"/>
	<path class="st0" d="M526.8,661.9"/>
	<path class="st0" d="M715.3,494"/>
</g>
<g id="Layer_2">
</g>
</svg>
