<?xml version="1.0" standalone="no"?>
<!DOCTYPE svg PUBLIC "-//W3C//DTD SVG 20010904//EN"
 "http://www.w3.org/TR/2001/REC-SVG-20010904/DTD/svg10.dtd">
<svg version="1.0" xmlns="http://www.w3.org/2000/svg"
 width="75.000000pt" height="51.000000pt" viewBox="0 0 75.000000 51.000000"
 preserveAspectRatio="xMidYMid meet">

<g transform="translate(0.000000,51.000000) scale(0.100000,-0.100000)"
fill="#000000" stroke="none">
<path d="M140 430 c0 -5 7 -10 16 -10 8 0 12 5 9 10 -3 6 -10 10 -16 10 -5 0
-9 -4 -9 -10z"/>
<path d="M329 395 c-1 -8 -1 -35 -1 -60 0 -70 1 -75 16 -75 9 0 16 12 18 28 2
19 9 28 26 30 13 2 28 14 34 28 9 19 8 28 -7 44 -22 24 -84 28 -86 5z m71 -30
c0 -8 -9 -15 -20 -15 -20 0 -26 11 -13 23 12 13 33 7 33 -8z"/>
<path d="M130 384 c0 -11 5 -14 16 -10 9 3 20 6 25 6 5 0 9 5 9 10 0 6 -11 10
-25 10 -16 0 -25 -6 -25 -16z"/>
<path d="M138 353 c7 -3 16 -2 19 1 4 3 -2 6 -13 5 -11 0 -14 -3 -6 -6z"/>
<path d="M472 105 c0 -16 2 -22 5 -12 2 9 2 23 0 30 -3 6 -5 -1 -5 -18z"/>
<path d="M427 113 c-4 -3 -7 -12 -7 -20 0 -15 26 -18 34 -4 7 11 -18 33 -27
24z"/>
</g>
</svg>
