<?xml version="1.0" encoding="UTF-8" standalone="no"?>
<svg
   xmlns:dc="http://purl.org/dc/elements/1.1/"
   xmlns:cc="http://creativecommons.org/ns#"
   xmlns:rdf="http://www.w3.org/1999/02/22-rdf-syntax-ns#"
   xmlns:svg="http://www.w3.org/2000/svg"
   xmlns="http://www.w3.org/2000/svg"
   width="512"
   height="512"
   id="svg2"
   version="1.1">
  <defs
     id="defs4" />
  <metadata
     id="metadata7">
    <rdf:RDF>
      <cc:Work
         rdf:about="">
        <dc:format>image/svg+xml</dc:format>
        <dc:type
           rdf:resource="http://purl.org/dc/dcmitype/StillImage" />
        <dc:title></dc:title>
      </cc:Work>
    </rdf:RDF>
  </metadata>
  <g
     id="layer2">
    <path
       id="path831"
       style="fill:#000000;stroke-width:8;stroke-linecap:round"
       d="M 256,512 A 256,256 0 0 0 512,256 256,256 0 0 0 256,0 256,256 0 0 0 0,256 256,256 0 0 0 256,512 Z m -33.91016,-53.64063 c -5.13265,-0.0177 -10.05008,-2.06425 -13.67968,-5.69335 l -54.98438,-54.98438 c -7.59064,-7.59222 -7.59064,-19.89997 0,-27.49219 L 267.97656,255.63867 153.42578,141.08789 c -7.59064,-7.59222 -7.59064,-19.89997 0,-27.49219 l 54.98438,-54.98632 c 7.59222,-7.59064 19.89996,-7.59063 27.49218,0 l 183.28125,183.2832 c 7.59064,7.59222 7.59064,19.89997 0,27.49219 L 235.90234,452.66602 c -3.66215,3.66164 -8.63382,5.71091 -13.8125,5.69335 z" />
  </g>
</svg>
