<?xml version="1.0" encoding="UTF-8" standalone="no"?>
<svg
   xmlns:dc="http://purl.org/dc/elements/1.1/"
   xmlns:cc="http://creativecommons.org/ns#"
   xmlns:rdf="http://www.w3.org/1999/02/22-rdf-syntax-ns#"
   xmlns:svg="http://www.w3.org/2000/svg"
   xmlns="http://www.w3.org/2000/svg"
   width="512"
   height="512"
   id="svg2"
   version="1.1">
  <defs
     id="defs4" />
  <metadata
     id="metadata7">
    <rdf:RDF>
      <cc:Work
         rdf:about="">
        <dc:format>image/svg+xml</dc:format>
        <dc:type
           rdf:resource="http://purl.org/dc/dcmitype/StillImage" />
        <dc:title></dc:title>
      </cc:Work>
    </rdf:RDF>
  </metadata>
  <g
     id="layer2">
    <path
       id="path831"
       style="fill:#000000;stroke-width:8;stroke-linecap:round"
       d="M 256 0 A 256 256 0 0 0 0 256 A 256 256 0 0 0 256 512 A 256 256 0 0 0 512 256 A 256 256 0 0 0 256 0 z M 289.91016 53.640625 C 295.04281 53.65829 299.96024 55.704878 303.58984 59.333984 L 358.57422 114.31836 C 366.16486 121.91058 366.16486 134.21833 358.57422 141.81055 L 244.02344 256.36133 L 358.57422 370.91211 C 366.16486 378.50433 366.16486 390.81208 358.57422 398.4043 L 303.58984 453.39062 C 295.99762 460.98126 283.68988 460.98125 276.09766 453.39062 L 92.816406 270.10742 C 85.225769 262.5152 85.225769 250.20745 92.816406 242.61523 L 276.09766 59.333984 C 279.75981 55.672337 284.73148 53.623065 289.91016 53.640625 z " />
  </g>
</svg>
